<mxfile host="Electron" modified="2023-07-19T09:41:42.094Z" agent="Mozilla/5.0 (Windows NT 10.0; Win64; x64) AppleWebKit/537.36 (KHTML, like Gecko) draw.io/21.6.1 Chrome/112.0.5615.204 Electron/24.6.1 Safari/537.36" etag="XF2gxou6SnBaaNZ329-B" version="21.6.1" type="device">
  <diagram id="R2lEEEUBdFMjLlhIrx00" name="Page-1">
    <mxGraphModel dx="2654" dy="836" grid="1" gridSize="10" guides="1" tooltips="1" connect="1" arrows="1" fold="1" page="1" pageScale="1" pageWidth="980" pageHeight="1390" math="0" shadow="0" extFonts="Permanent Marker^https://fonts.googleapis.com/css?family=Permanent+Marker">
      <root>
        <mxCell id="0" />
        <mxCell id="1" parent="0" />
        <mxCell id="MmX11wm5HvuTR1FrTXqp-2" value="Junta" style="shape=ext;margin=3;double=1;whiteSpace=wrap;html=1;align=center;" parent="1" vertex="1">
          <mxGeometry x="462.76" y="306.62" width="100" height="60" as="geometry" />
        </mxCell>
        <mxCell id="MmX11wm5HvuTR1FrTXqp-77" value="id" style="text;html=1;strokeColor=none;fillColor=none;align=left;verticalAlign=middle;whiteSpace=wrap;rounded=0;fontSize=9;" parent="1" vertex="1">
          <mxGeometry x="481.8299999999999" y="233.56" width="16.36" height="9.38" as="geometry" />
        </mxCell>
        <mxCell id="MmX11wm5HvuTR1FrTXqp-80" value="" style="endArrow=none;html=1;rounded=0;fontSize=10;entryX=0.1;entryY=-0.012;entryDx=0;entryDy=0;entryPerimeter=0;exitX=0.5;exitY=1;exitDx=0;exitDy=0;" parent="1" source="MmX11wm5HvuTR1FrTXqp-179" target="MmX11wm5HvuTR1FrTXqp-2" edge="1">
          <mxGeometry width="50" height="50" relative="1" as="geometry">
            <mxPoint x="472" y="215" as="sourcePoint" />
            <mxPoint x="472.16999999999996" y="271.5" as="targetPoint" />
          </mxGeometry>
        </mxCell>
        <mxCell id="MmX11wm5HvuTR1FrTXqp-179" value="" style="ellipse;whiteSpace=wrap;html=1;aspect=fixed;fillColor=#000000;strokeColor=#000000;fontColor=#000000;" parent="1" vertex="1">
          <mxGeometry x="467.79999999999995" y="232.44" width="11" height="11" as="geometry" />
        </mxCell>
        <mxCell id="MmX11wm5HvuTR1FrTXqp-235" value="Comisión" style="shape=ext;margin=3;double=1;whiteSpace=wrap;html=1;align=center;" parent="1" vertex="1">
          <mxGeometry x="1005.5799999999999" y="533.32" width="100" height="60" as="geometry" />
        </mxCell>
        <mxCell id="MmX11wm5HvuTR1FrTXqp-239" value="nombre" style="text;html=1;strokeColor=none;fillColor=none;align=left;verticalAlign=middle;whiteSpace=wrap;rounded=0;fontSize=9;" parent="1" vertex="1">
          <mxGeometry x="1130.83" y="564.82" width="65" height="10" as="geometry" />
        </mxCell>
        <mxCell id="MmX11wm5HvuTR1FrTXqp-241" value="id" style="text;html=1;strokeColor=none;fillColor=none;align=left;verticalAlign=middle;whiteSpace=wrap;rounded=0;fontSize=9;" parent="1" vertex="1">
          <mxGeometry x="1130.83" y="534.94" width="73" height="9.38" as="geometry" />
        </mxCell>
        <mxCell id="MmX11wm5HvuTR1FrTXqp-242" value="" style="endArrow=none;html=1;rounded=0;fontSize=10;exitX=0;exitY=0.5;exitDx=0;exitDy=0;entryX=1;entryY=0.5;entryDx=0;entryDy=0;" parent="1" source="MmX11wm5HvuTR1FrTXqp-254" edge="1">
          <mxGeometry width="50" height="50" relative="1" as="geometry">
            <mxPoint x="1095.58" y="497.07" as="sourcePoint" />
            <mxPoint x="1105.58" y="555.32" as="targetPoint" />
          </mxGeometry>
        </mxCell>
        <mxCell id="MmX11wm5HvuTR1FrTXqp-244" value="" style="endArrow=none;html=1;rounded=0;fontSize=10;entryX=1;entryY=0.25;entryDx=0;entryDy=0;exitX=0;exitY=0.5;exitDx=0;exitDy=0;" parent="1" source="MmX11wm5HvuTR1FrTXqp-250" edge="1">
          <mxGeometry width="50" height="50" relative="1" as="geometry">
            <mxPoint x="1095.58" y="460.32" as="sourcePoint" />
            <mxPoint x="1105.58" y="540.32" as="targetPoint" />
          </mxGeometry>
        </mxCell>
        <mxCell id="MmX11wm5HvuTR1FrTXqp-247" value="descripción" style="text;html=1;strokeColor=none;fillColor=none;align=left;verticalAlign=middle;whiteSpace=wrap;rounded=0;fontSize=9;" parent="1" vertex="1">
          <mxGeometry x="1130.83" y="576.82" width="65" height="12.5" as="geometry" />
        </mxCell>
        <mxCell id="MmX11wm5HvuTR1FrTXqp-248" value="" style="endArrow=none;html=1;rounded=0;entryX=0;entryY=0.5;entryDx=0;entryDy=0;exitX=1;exitY=0.75;exitDx=0;exitDy=0;" parent="1" target="MmX11wm5HvuTR1FrTXqp-253" edge="1">
          <mxGeometry width="50" height="50" relative="1" as="geometry">
            <mxPoint x="1105.58" y="570.32" as="sourcePoint" />
            <mxPoint x="1095.58" y="509.57" as="targetPoint" />
          </mxGeometry>
        </mxCell>
        <mxCell id="MmX11wm5HvuTR1FrTXqp-250" value="" style="ellipse;whiteSpace=wrap;html=1;aspect=fixed;fillColor=#000000;strokeColor=#000000;fontColor=#000000;" parent="1" vertex="1">
          <mxGeometry x="1116.57" y="534.94" width="11" height="11" as="geometry" />
        </mxCell>
        <mxCell id="MmX11wm5HvuTR1FrTXqp-253" value="" style="ellipse;whiteSpace=wrap;html=1;aspect=fixed;fillColor=#FFFFFF;strokeColor=#000000;fontColor=#000000;" parent="1" vertex="1">
          <mxGeometry x="1115.83" y="564.82" width="11" height="11" as="geometry" />
        </mxCell>
        <mxCell id="MmX11wm5HvuTR1FrTXqp-254" value="" style="ellipse;whiteSpace=wrap;html=1;aspect=fixed;fillColor=#CCCCCC;strokeColor=#000000;fontColor=#000000;" parent="1" vertex="1">
          <mxGeometry x="1115.83" y="549.94" width="11" height="11" as="geometry" />
        </mxCell>
        <mxCell id="MmX11wm5HvuTR1FrTXqp-260" value="" style="endArrow=none;html=1;rounded=0;entryX=0;entryY=0.5;entryDx=0;entryDy=0;exitX=0.994;exitY=0.84;exitDx=0;exitDy=0;exitPerimeter=0;" parent="1" source="MmX11wm5HvuTR1FrTXqp-235" target="MmX11wm5HvuTR1FrTXqp-261" edge="1">
          <mxGeometry width="50" height="50" relative="1" as="geometry">
            <mxPoint x="1105.58" y="584.82" as="sourcePoint" />
            <mxPoint x="1095.58" y="524.07" as="targetPoint" />
          </mxGeometry>
        </mxCell>
        <mxCell id="MmX11wm5HvuTR1FrTXqp-261" value="" style="ellipse;whiteSpace=wrap;html=1;aspect=fixed;fillColor=#FFFFFF;strokeColor=#000000;fontColor=#000000;" parent="1" vertex="1">
          <mxGeometry x="1115.83" y="578.32" width="11" height="11" as="geometry" />
        </mxCell>
        <mxCell id="MmX11wm5HvuTR1FrTXqp-262" value="fechaConstitución" style="text;html=1;strokeColor=none;fillColor=none;align=left;verticalAlign=middle;whiteSpace=wrap;rounded=0;fontSize=9;" parent="1" vertex="1">
          <mxGeometry x="1130.8300000000002" y="594.94" width="65" height="12.5" as="geometry" />
        </mxCell>
        <mxCell id="MmX11wm5HvuTR1FrTXqp-272" value="" style="edgeStyle=orthogonalEdgeStyle;rounded=0;orthogonalLoop=1;jettySize=auto;html=1;" parent="1" source="MmX11wm5HvuTR1FrTXqp-263" target="MmX11wm5HvuTR1FrTXqp-235" edge="1">
          <mxGeometry relative="1" as="geometry" />
        </mxCell>
        <mxCell id="MmX11wm5HvuTR1FrTXqp-263" value="Ju-Co" style="shape=rhombus;perimeter=rhombusPerimeter;whiteSpace=wrap;html=1;align=center;fontStyle=1;fontSize=10;" parent="1" vertex="1">
          <mxGeometry x="1026.2" y="420.94" width="60" height="60" as="geometry" />
        </mxCell>
        <mxCell id="MmX11wm5HvuTR1FrTXqp-264" value="1:N" style="text;html=1;strokeColor=none;fillColor=none;align=center;verticalAlign=middle;whiteSpace=wrap;rounded=0;fontSize=15;fontStyle=1;direction=east;flipV=0;flipH=0;rotation=90;" parent="1" vertex="1">
          <mxGeometry x="1087.0800000000002" y="443.06" width="22.5" height="15.75" as="geometry" />
        </mxCell>
        <mxCell id="MmX11wm5HvuTR1FrTXqp-265" value="" style="endArrow=none;html=1;rounded=0;fontColor=#000000;strokeColor=#000000;exitX=1;exitY=1;exitDx=0;exitDy=0;entryX=0;entryY=1;entryDx=0;entryDy=0;" parent="1" edge="1">
          <mxGeometry width="50" height="50" relative="1" as="geometry">
            <mxPoint x="1071.2" y="435.94" as="sourcePoint" />
            <mxPoint x="1041.2" y="435.94" as="targetPoint" />
          </mxGeometry>
        </mxCell>
        <mxCell id="wt0K1hmHgsjhLcT-p73o-27" style="edgeStyle=orthogonalEdgeStyle;rounded=0;orthogonalLoop=1;jettySize=auto;html=1;exitX=0.5;exitY=0;exitDx=0;exitDy=0;entryX=1;entryY=0.75;entryDx=0;entryDy=0;" parent="1" source="MmX11wm5HvuTR1FrTXqp-266" target="MmX11wm5HvuTR1FrTXqp-2" edge="1">
          <mxGeometry relative="1" as="geometry">
            <mxPoint x="1172.0100000000002" y="367" as="targetPoint" />
          </mxGeometry>
        </mxCell>
        <mxCell id="MmX11wm5HvuTR1FrTXqp-266" value="EX" style="text;html=1;strokeColor=none;fillColor=none;align=center;verticalAlign=middle;whiteSpace=wrap;rounded=0;fontSize=8;fontStyle=1" parent="1" vertex="1">
          <mxGeometry x="1050.5800000000002" y="424.44" width="11.25" height="12" as="geometry" />
        </mxCell>
        <mxCell id="MmX11wm5HvuTR1FrTXqp-273" value="gestiona" style="text;html=1;strokeColor=none;fillColor=none;align=left;verticalAlign=middle;whiteSpace=wrap;rounded=0;fontSize=9;" parent="1" vertex="1">
          <mxGeometry x="594.01" y="359.94" width="55" height="12.5" as="geometry" />
        </mxCell>
        <mxCell id="MmX11wm5HvuTR1FrTXqp-274" value="esGestionada" style="text;html=1;strokeColor=none;fillColor=none;align=left;verticalAlign=middle;whiteSpace=wrap;rounded=0;fontSize=9;" parent="1" vertex="1">
          <mxGeometry x="1067.57" y="515.94" width="55" height="12.5" as="geometry" />
        </mxCell>
        <mxCell id="MmX11wm5HvuTR1FrTXqp-275" value="" style="endArrow=none;html=1;rounded=0;entryX=0;entryY=0;entryDx=0;entryDy=0;exitX=1;exitY=1;exitDx=0;exitDy=0;" parent="1" source="MmX11wm5HvuTR1FrTXqp-235" target="MmX11wm5HvuTR1FrTXqp-276" edge="1">
          <mxGeometry width="50" height="50" relative="1" as="geometry">
            <mxPoint x="1094.28" y="593.2000000000002" as="sourcePoint" />
            <mxPoint x="1094.49" y="603.94" as="targetPoint" />
          </mxGeometry>
        </mxCell>
        <mxCell id="MmX11wm5HvuTR1FrTXqp-276" value="" style="ellipse;whiteSpace=wrap;html=1;aspect=fixed;fillColor=#FFFFFF;strokeColor=#000000;fontColor=#000000;" parent="1" vertex="1">
          <mxGeometry x="1115.83" y="594.82" width="11" height="11" as="geometry" />
        </mxCell>
        <mxCell id="MmX11wm5HvuTR1FrTXqp-277" value="idJunta" style="text;html=1;strokeColor=none;fillColor=none;align=left;verticalAlign=middle;whiteSpace=wrap;rounded=0;fontSize=9;" parent="1" vertex="1">
          <mxGeometry x="1130.83" y="548.44" width="65" height="12.5" as="geometry" />
        </mxCell>
        <mxCell id="MmX11wm5HvuTR1FrTXqp-278" value="Convocatoria" style="shape=ext;margin=3;double=1;whiteSpace=wrap;html=1;align=center;" parent="1" vertex="1">
          <mxGeometry x="1311.5800000000002" y="1020.4499999999998" width="100" height="60" as="geometry" />
        </mxCell>
        <mxCell id="MmX11wm5HvuTR1FrTXqp-279" value="lugar" style="text;html=1;strokeColor=none;fillColor=none;align=left;verticalAlign=middle;whiteSpace=wrap;rounded=0;fontSize=9;" parent="1" vertex="1">
          <mxGeometry x="1436.8300000000002" y="1035.4499999999998" width="65" height="10" as="geometry" />
        </mxCell>
        <mxCell id="MmX11wm5HvuTR1FrTXqp-280" value="id" style="text;html=1;strokeColor=none;fillColor=none;align=left;verticalAlign=middle;whiteSpace=wrap;rounded=0;fontSize=9;" parent="1" vertex="1">
          <mxGeometry x="1436.8300000000002" y="1020.0700000000002" width="73" height="9.38" as="geometry" />
        </mxCell>
        <mxCell id="MmX11wm5HvuTR1FrTXqp-281" value="" style="endArrow=none;html=1;rounded=0;fontSize=10;exitX=0;exitY=0.5;exitDx=0;exitDy=0;entryX=1;entryY=0.5;entryDx=0;entryDy=0;" parent="1" source="MmX11wm5HvuTR1FrTXqp-287" edge="1">
          <mxGeometry width="50" height="50" relative="1" as="geometry">
            <mxPoint x="1401.5800000000002" y="984.1999999999998" as="sourcePoint" />
            <mxPoint x="1411.5800000000002" y="1042.4500000000003" as="targetPoint" />
          </mxGeometry>
        </mxCell>
        <mxCell id="MmX11wm5HvuTR1FrTXqp-282" value="" style="endArrow=none;html=1;rounded=0;fontSize=10;entryX=1;entryY=0.25;entryDx=0;entryDy=0;exitX=0;exitY=0.5;exitDx=0;exitDy=0;" parent="1" source="MmX11wm5HvuTR1FrTXqp-285" edge="1">
          <mxGeometry width="50" height="50" relative="1" as="geometry">
            <mxPoint x="1401.5800000000002" y="947.4499999999999" as="sourcePoint" />
            <mxPoint x="1411.5800000000002" y="1027.4500000000003" as="targetPoint" />
          </mxGeometry>
        </mxCell>
        <mxCell id="MmX11wm5HvuTR1FrTXqp-283" value="fecha" style="text;html=1;strokeColor=none;fillColor=none;align=left;verticalAlign=middle;whiteSpace=wrap;rounded=0;fontSize=9;" parent="1" vertex="1">
          <mxGeometry x="1436.8300000000002" y="1049.1999999999998" width="65" height="12.5" as="geometry" />
        </mxCell>
        <mxCell id="MmX11wm5HvuTR1FrTXqp-284" value="" style="endArrow=none;html=1;rounded=0;entryX=0;entryY=0.5;entryDx=0;entryDy=0;exitX=1;exitY=0.75;exitDx=0;exitDy=0;" parent="1" target="MmX11wm5HvuTR1FrTXqp-286" edge="1">
          <mxGeometry width="50" height="50" relative="1" as="geometry">
            <mxPoint x="1411.5800000000002" y="1057.4500000000003" as="sourcePoint" />
            <mxPoint x="1401.5800000000002" y="996.6999999999998" as="targetPoint" />
          </mxGeometry>
        </mxCell>
        <mxCell id="MmX11wm5HvuTR1FrTXqp-285" value="" style="ellipse;whiteSpace=wrap;html=1;aspect=fixed;fillColor=#000000;strokeColor=#000000;fontColor=#000000;" parent="1" vertex="1">
          <mxGeometry x="1422.57" y="1022.0700000000002" width="11" height="11" as="geometry" />
        </mxCell>
        <mxCell id="MmX11wm5HvuTR1FrTXqp-286" value="" style="ellipse;whiteSpace=wrap;html=1;aspect=fixed;fillColor=#FFFFFF;strokeColor=#000000;fontColor=#000000;" parent="1" vertex="1">
          <mxGeometry x="1421.8300000000002" y="1051.9499999999998" width="11" height="11" as="geometry" />
        </mxCell>
        <mxCell id="MmX11wm5HvuTR1FrTXqp-287" value="" style="ellipse;whiteSpace=wrap;html=1;aspect=fixed;fillColor=#FFFFFF;strokeColor=#000000;fontColor=#000000;" parent="1" vertex="1">
          <mxGeometry x="1421.8300000000002" y="1037.0700000000002" width="11" height="11" as="geometry" />
        </mxCell>
        <mxCell id="MmX11wm5HvuTR1FrTXqp-288" value="" style="endArrow=none;html=1;rounded=0;entryX=0;entryY=0.5;entryDx=0;entryDy=0;exitX=0.994;exitY=0.84;exitDx=0;exitDy=0;exitPerimeter=0;" parent="1" source="MmX11wm5HvuTR1FrTXqp-278" target="MmX11wm5HvuTR1FrTXqp-289" edge="1">
          <mxGeometry width="50" height="50" relative="1" as="geometry">
            <mxPoint x="1411.5800000000002" y="1071.9499999999998" as="sourcePoint" />
            <mxPoint x="1401.5800000000002" y="1011.1999999999998" as="targetPoint" />
          </mxGeometry>
        </mxCell>
        <mxCell id="MmX11wm5HvuTR1FrTXqp-289" value="" style="ellipse;whiteSpace=wrap;html=1;aspect=fixed;fillColor=#FFFFFF;strokeColor=#000000;fontColor=#000000;" parent="1" vertex="1">
          <mxGeometry x="1421.8300000000002" y="1065.4499999999998" width="11" height="11" as="geometry" />
        </mxCell>
        <mxCell id="MmX11wm5HvuTR1FrTXqp-290" value="hora" style="text;html=1;strokeColor=none;fillColor=none;align=left;verticalAlign=middle;whiteSpace=wrap;rounded=0;fontSize=9;" parent="1" vertex="1">
          <mxGeometry x="1435.57" y="1063.4499999999998" width="65" height="12.5" as="geometry" />
        </mxCell>
        <mxCell id="0EHpkeUix3jVTKtLxYQo-2" style="edgeStyle=orthogonalEdgeStyle;rounded=0;orthogonalLoop=1;jettySize=auto;html=1;exitX=0.5;exitY=1;exitDx=0;exitDy=0;entryX=0.5;entryY=0;entryDx=0;entryDy=0;" parent="1" source="MmX11wm5HvuTR1FrTXqp-292" target="MmX11wm5HvuTR1FrTXqp-278" edge="1">
          <mxGeometry relative="1" as="geometry" />
        </mxCell>
        <mxCell id="MmX11wm5HvuTR1FrTXqp-292" value="Co-Re" style="shape=rhombus;perimeter=rhombusPerimeter;whiteSpace=wrap;html=1;align=center;fontStyle=1;fontSize=10;" parent="1" vertex="1">
          <mxGeometry x="1331.57" y="783.0600000000002" width="60" height="60" as="geometry" />
        </mxCell>
        <mxCell id="MmX11wm5HvuTR1FrTXqp-293" value="1:N" style="text;html=1;strokeColor=none;fillColor=none;align=center;verticalAlign=middle;whiteSpace=wrap;rounded=0;fontSize=15;fontStyle=1;rotation=90;" parent="1" vertex="1">
          <mxGeometry x="1391.57" y="803.3100000000002" width="22.5" height="15.75" as="geometry" />
        </mxCell>
        <mxCell id="MmX11wm5HvuTR1FrTXqp-294" value="" style="endArrow=none;html=1;rounded=0;fontColor=#000000;strokeColor=#000000;exitX=1;exitY=1;exitDx=0;exitDy=0;entryX=0;entryY=1;entryDx=0;entryDy=0;" parent="1" edge="1">
          <mxGeometry width="50" height="50" relative="1" as="geometry">
            <mxPoint x="1376.57" y="798.0600000000002" as="sourcePoint" />
            <mxPoint x="1346.57" y="798.0600000000002" as="targetPoint" />
          </mxGeometry>
        </mxCell>
        <mxCell id="MmX11wm5HvuTR1FrTXqp-300" value="" style="edgeStyle=orthogonalEdgeStyle;rounded=0;orthogonalLoop=1;jettySize=auto;html=1;entryX=0.5;entryY=1;entryDx=0;entryDy=0;" parent="1" source="MmX11wm5HvuTR1FrTXqp-295" target="MmX11wm5HvuTR1FrTXqp-235" edge="1">
          <mxGeometry relative="1" as="geometry">
            <Array as="points">
              <mxPoint x="1361.94" y="650.94" />
              <mxPoint x="1055.94" y="650.94" />
            </Array>
          </mxGeometry>
        </mxCell>
        <mxCell id="MmX11wm5HvuTR1FrTXqp-295" value="E" style="text;html=1;strokeColor=none;fillColor=none;align=center;verticalAlign=middle;whiteSpace=wrap;rounded=0;fontSize=8;fontStyle=1" parent="1" vertex="1">
          <mxGeometry x="1355.95" y="786.5600000000002" width="11.25" height="12" as="geometry" />
        </mxCell>
        <mxCell id="MmX11wm5HvuTR1FrTXqp-296" value="genera" style="text;html=1;strokeColor=none;fillColor=none;align=left;verticalAlign=middle;whiteSpace=wrap;rounded=0;fontSize=9;" parent="1" vertex="1">
          <mxGeometry x="1320.7" y="1003.0700000000002" width="55" height="12.5" as="geometry" />
        </mxCell>
        <mxCell id="MmX11wm5HvuTR1FrTXqp-297" value="" style="endArrow=none;html=1;rounded=0;entryX=0.5;entryY=0;entryDx=0;entryDy=0;exitX=0.797;exitY=0.998;exitDx=0;exitDy=0;exitPerimeter=0;" parent="1" edge="1">
          <mxGeometry width="50" height="50" relative="1" as="geometry">
            <mxPoint x="1382.28" y="1080.3300000000004" as="sourcePoint" />
            <mxPoint x="1382.49" y="1091.0700000000002" as="targetPoint" />
          </mxGeometry>
        </mxCell>
        <mxCell id="MmX11wm5HvuTR1FrTXqp-298" value="" style="ellipse;whiteSpace=wrap;html=1;aspect=fixed;fillColor=#CCCCCC;strokeColor=#000000;fontColor=#000000;" parent="1" vertex="1">
          <mxGeometry x="1376.99" y="1091.0700000000002" width="11" height="11" as="geometry" />
        </mxCell>
        <mxCell id="MmX11wm5HvuTR1FrTXqp-299" value="idCom" style="text;html=1;strokeColor=none;fillColor=none;align=left;verticalAlign=middle;whiteSpace=wrap;rounded=0;fontSize=9;" parent="1" vertex="1">
          <mxGeometry x="1371.2" y="1102.0700000000002" width="30.25" height="12.5" as="geometry" />
        </mxCell>
        <mxCell id="MmX11wm5HvuTR1FrTXqp-301" value="esGenerada" style="text;html=1;strokeColor=none;fillColor=none;align=left;verticalAlign=middle;whiteSpace=wrap;rounded=0;fontSize=9;" parent="1" vertex="1">
          <mxGeometry x="994.8199999999999" y="594.94" width="55" height="12.5" as="geometry" />
        </mxCell>
        <mxCell id="MmX11wm5HvuTR1FrTXqp-302" value="(1,1)" style="text;html=1;strokeColor=none;fillColor=none;align=left;verticalAlign=middle;whiteSpace=wrap;rounded=0;fontSize=9;" parent="1" vertex="1">
          <mxGeometry x="568.51" y="359.94" width="25.5" height="12.5" as="geometry" />
        </mxCell>
        <mxCell id="MmX11wm5HvuTR1FrTXqp-303" value="(0,N)" style="text;html=1;strokeColor=none;fillColor=none;align=left;verticalAlign=middle;whiteSpace=wrap;rounded=0;fontSize=9;" parent="1" vertex="1">
          <mxGeometry x="1021.0699999999999" y="515.94" width="25.5" height="12.5" as="geometry" />
        </mxCell>
        <mxCell id="MmX11wm5HvuTR1FrTXqp-304" value="(1,1)" style="text;html=1;strokeColor=none;fillColor=none;align=left;verticalAlign=middle;whiteSpace=wrap;rounded=0;fontSize=9;" parent="1" vertex="1">
          <mxGeometry x="1064.07" y="593.32" width="25.5" height="12.5" as="geometry" />
        </mxCell>
        <mxCell id="MmX11wm5HvuTR1FrTXqp-305" value="(0,N)" style="text;html=1;strokeColor=none;fillColor=none;align=left;verticalAlign=middle;whiteSpace=wrap;rounded=0;fontSize=9;" parent="1" vertex="1">
          <mxGeometry x="1370.95" y="1003.0700000000002" width="25.5" height="12.5" as="geometry" />
        </mxCell>
        <mxCell id="MmX11wm5HvuTR1FrTXqp-306" style="edgeStyle=none;rounded=0;orthogonalLoop=1;jettySize=auto;html=1;exitX=0.5;exitY=0;exitDx=0;exitDy=0;endArrow=none;endFill=0;entryX=0.75;entryY=1;entryDx=0;entryDy=0;" parent="1" source="MmX11wm5HvuTR1FrTXqp-307" edge="1">
          <mxGeometry relative="1" as="geometry">
            <mxPoint x="1353.95" y="1080.4499999999998" as="targetPoint" />
          </mxGeometry>
        </mxCell>
        <mxCell id="MmX11wm5HvuTR1FrTXqp-307" value="" style="ellipse;whiteSpace=wrap;html=1;aspect=fixed;fillColor=#FFFFFF;strokeColor=#000000;fontColor=#000000;" parent="1" vertex="1">
          <mxGeometry x="1348.45" y="1090.9499999999998" width="11" height="11" as="geometry" />
        </mxCell>
        <mxCell id="MmX11wm5HvuTR1FrTXqp-308" value="tipo" style="text;html=1;strokeColor=none;fillColor=none;align=left;verticalAlign=middle;whiteSpace=wrap;rounded=0;fontSize=9;" parent="1" vertex="1">
          <mxGeometry x="1342.2" y="1104.0700000000002" width="22.74" height="8.75" as="geometry" />
        </mxCell>
        <mxCell id="MmX11wm5HvuTR1FrTXqp-315" value="Jun-Re" style="shape=rhombus;perimeter=rhombusPerimeter;whiteSpace=wrap;html=1;align=center;fontStyle=1;fontSize=10;" parent="1" vertex="1">
          <mxGeometry x="1479.45" y="779.94" width="60" height="60" as="geometry" />
        </mxCell>
        <mxCell id="MmX11wm5HvuTR1FrTXqp-316" value="1:N" style="text;html=1;strokeColor=none;fillColor=none;align=center;verticalAlign=middle;whiteSpace=wrap;rounded=0;fontSize=15;fontStyle=1;rotation=90;" parent="1" vertex="1">
          <mxGeometry x="1539.45" y="799.44" width="22.5" height="15.75" as="geometry" />
        </mxCell>
        <mxCell id="MmX11wm5HvuTR1FrTXqp-317" value="" style="endArrow=none;html=1;rounded=0;fontColor=#000000;strokeColor=#000000;exitX=1;exitY=1;exitDx=0;exitDy=0;entryX=0;entryY=1;entryDx=0;entryDy=0;" parent="1" edge="1">
          <mxGeometry width="50" height="50" relative="1" as="geometry">
            <mxPoint x="1524.45" y="794.94" as="sourcePoint" />
            <mxPoint x="1494.45" y="794.94" as="targetPoint" />
          </mxGeometry>
        </mxCell>
        <mxCell id="MmX11wm5HvuTR1FrTXqp-318" value="E" style="text;html=1;strokeColor=none;fillColor=none;align=center;verticalAlign=middle;whiteSpace=wrap;rounded=0;fontSize=8;fontStyle=1" parent="1" vertex="1">
          <mxGeometry x="1503.8300000000002" y="783.44" width="11.25" height="12" as="geometry" />
        </mxCell>
        <mxCell id="MmX11wm5HvuTR1FrTXqp-324" value="" style="endArrow=classic;html=1;rounded=0;entryX=1;entryY=0.5;entryDx=0;entryDy=0;exitX=0.5;exitY=0;exitDx=0;exitDy=0;" parent="1" source="MmX11wm5HvuTR1FrTXqp-315" target="MmX11wm5HvuTR1FrTXqp-2" edge="1">
          <mxGeometry width="50" height="50" relative="1" as="geometry">
            <mxPoint x="1099.51" y="530" as="sourcePoint" />
            <mxPoint x="1222.0100000000002" y="337" as="targetPoint" />
            <Array as="points">
              <mxPoint x="1509" y="340" />
            </Array>
          </mxGeometry>
        </mxCell>
        <mxCell id="MmX11wm5HvuTR1FrTXqp-325" value="" style="endArrow=classic;html=1;rounded=0;exitX=0.5;exitY=1;exitDx=0;exitDy=0;entryX=1;entryY=1;entryDx=0;entryDy=0;" parent="1" source="MmX11wm5HvuTR1FrTXqp-315" target="MmX11wm5HvuTR1FrTXqp-278" edge="1">
          <mxGeometry width="50" height="50" relative="1" as="geometry">
            <mxPoint x="984.45" y="600.94" as="sourcePoint" />
            <mxPoint x="1034.45" y="550.94" as="targetPoint" />
            <Array as="points">
              <mxPoint x="1509.94" y="1080.94" />
            </Array>
          </mxGeometry>
        </mxCell>
        <mxCell id="MmX11wm5HvuTR1FrTXqp-326" value="(0,N)" style="text;html=1;strokeColor=none;fillColor=none;align=left;verticalAlign=middle;whiteSpace=wrap;rounded=0;fontSize=9;" parent="1" vertex="1">
          <mxGeometry x="424.54999999999984" y="322" width="25.5" height="12.5" as="geometry" />
        </mxCell>
        <mxCell id="MmX11wm5HvuTR1FrTXqp-327" value="(0,N)" style="text;html=1;strokeColor=none;fillColor=none;align=left;verticalAlign=middle;whiteSpace=wrap;rounded=0;fontSize=9;" parent="1" vertex="1">
          <mxGeometry x="1484.3300000000002" y="1064.6999999999998" width="25.5" height="12.5" as="geometry" />
        </mxCell>
        <mxCell id="MmX11wm5HvuTR1FrTXqp-328" value="esCoordinado" style="text;html=1;strokeColor=none;fillColor=none;align=left;verticalAlign=middle;whiteSpace=wrap;rounded=0;fontSize=9;" parent="1" vertex="1">
          <mxGeometry x="387.19000000000005" y="339.62" width="55" height="12.5" as="geometry" />
        </mxCell>
        <mxCell id="MmX11wm5HvuTR1FrTXqp-329" value="genera" style="text;html=1;strokeColor=none;fillColor=none;align=left;verticalAlign=middle;whiteSpace=wrap;rounded=0;fontSize=9;" parent="1" vertex="1">
          <mxGeometry x="1481.0800000000002" y="1079.4499999999998" width="55" height="12.5" as="geometry" />
        </mxCell>
        <mxCell id="MmX11wm5HvuTR1FrTXqp-333" value="" style="endArrow=none;html=1;rounded=0;entryX=0.5;entryY=0;entryDx=0;entryDy=0;exitX=0.797;exitY=0.998;exitDx=0;exitDy=0;exitPerimeter=0;" parent="1" edge="1">
          <mxGeometry width="50" height="50" relative="1" as="geometry">
            <mxPoint x="1408.99" y="1080.21" as="sourcePoint" />
            <mxPoint x="1409.2" y="1090.9499999999998" as="targetPoint" />
          </mxGeometry>
        </mxCell>
        <mxCell id="MmX11wm5HvuTR1FrTXqp-334" value="" style="ellipse;whiteSpace=wrap;html=1;aspect=fixed;fillColor=#CCCCCC;strokeColor=#000000;fontColor=#000000;" parent="1" vertex="1">
          <mxGeometry x="1403.7" y="1090.9499999999998" width="11" height="11" as="geometry" />
        </mxCell>
        <mxCell id="MmX11wm5HvuTR1FrTXqp-336" value="idJun" style="text;html=1;strokeColor=none;fillColor=none;align=left;verticalAlign=middle;whiteSpace=wrap;rounded=0;fontSize=9;" parent="1" vertex="1">
          <mxGeometry x="1401.45" y="1102.0700000000002" width="30.25" height="12.5" as="geometry" />
        </mxCell>
        <mxCell id="MmX11wm5HvuTR1FrTXqp-347" value="Miembro&lt;br&gt;Junta" style="shape=ext;margin=3;double=1;whiteSpace=wrap;html=1;align=center;" parent="1" vertex="1">
          <mxGeometry x="404.32" y="703.9799999999999" width="100" height="60" as="geometry" />
        </mxCell>
        <mxCell id="MmX11wm5HvuTR1FrTXqp-397" value="Usuario" style="whiteSpace=wrap;html=1;align=center;" parent="1" vertex="1">
          <mxGeometry x="340.72" y="1003.8800000000001" width="100" height="60" as="geometry" />
        </mxCell>
        <mxCell id="MmX11wm5HvuTR1FrTXqp-398" value="e_mail" style="text;html=1;strokeColor=none;fillColor=none;align=left;verticalAlign=middle;whiteSpace=wrap;rounded=0;fontSize=9;fontColor=#000000;" parent="1" vertex="1">
          <mxGeometry x="375.97" y="1102.25" width="42.25" height="12.5" as="geometry" />
        </mxCell>
        <mxCell id="MmX11wm5HvuTR1FrTXqp-399" value="nombre_completo" style="text;html=1;strokeColor=none;fillColor=none;align=left;verticalAlign=middle;whiteSpace=wrap;rounded=0;fontSize=9;fontColor=#000000;" parent="1" vertex="1">
          <mxGeometry x="415.0100000000001" y="1109.25" width="86" height="15.5" as="geometry" />
        </mxCell>
        <mxCell id="MmX11wm5HvuTR1FrTXqp-400" value="" style="endArrow=none;html=1;rounded=0;fontSize=10;entryX=0.5;entryY=1;entryDx=0;entryDy=0;exitX=0.5;exitY=1;exitDx=0;exitDy=0;strokeColor=#000000;fontColor=#000000;" parent="1" source="MmX11wm5HvuTR1FrTXqp-397" target="MmX11wm5HvuTR1FrTXqp-409" edge="1">
          <mxGeometry width="50" height="50" relative="1" as="geometry">
            <mxPoint x="390.72" y="1134.88" as="sourcePoint" />
            <mxPoint x="414.220000000003" y="983.8800000000001" as="targetPoint" />
          </mxGeometry>
        </mxCell>
        <mxCell id="MmX11wm5HvuTR1FrTXqp-406" value="id" style="text;html=1;strokeColor=none;fillColor=none;align=left;verticalAlign=middle;whiteSpace=wrap;rounded=0;fontSize=9;fontColor=#000000;" parent="1" vertex="1">
          <mxGeometry x="359.22" y="1090.5" width="45.25" height="12.5" as="geometry" />
        </mxCell>
        <mxCell id="MmX11wm5HvuTR1FrTXqp-407" value="" style="endArrow=none;html=1;rounded=0;fontColor=#000000;strokeColor=#000000;entryX=0.5;entryY=1;entryDx=0;entryDy=0;exitX=0.25;exitY=1;exitDx=0;exitDy=0;" parent="1" source="MmX11wm5HvuTR1FrTXqp-397" target="MmX11wm5HvuTR1FrTXqp-410" edge="1">
          <mxGeometry width="50" height="50" relative="1" as="geometry">
            <mxPoint x="365.72" y="1134.88" as="sourcePoint" />
            <mxPoint x="414.220000000003" y="971.3800000000001" as="targetPoint" />
          </mxGeometry>
        </mxCell>
        <mxCell id="MmX11wm5HvuTR1FrTXqp-408" value="" style="ellipse;whiteSpace=wrap;html=1;aspect=fixed;fillColor=#FFFFFF;strokeColor=#000000;fontColor=#000000;" parent="1" vertex="1">
          <mxGeometry x="415.19000000000005" y="1098.25" width="11" height="11" as="geometry" />
        </mxCell>
        <mxCell id="MmX11wm5HvuTR1FrTXqp-409" value="" style="ellipse;whiteSpace=wrap;html=1;aspect=fixed;fillColor=#FFFFFF;strokeColor=#000000;fontColor=#000000;" parent="1" vertex="1">
          <mxGeometry x="385.22" y="1090.13" width="11" height="11" as="geometry" />
        </mxCell>
        <mxCell id="MmX11wm5HvuTR1FrTXqp-410" value="" style="ellipse;whiteSpace=wrap;html=1;aspect=fixed;fillColor=#000000;strokeColor=#000000;fontColor=#000000;" parent="1" vertex="1">
          <mxGeometry x="360.22" y="1075.88" width="11" height="11" as="geometry" />
        </mxCell>
        <mxCell id="MmX11wm5HvuTR1FrTXqp-412" value="" style="endArrow=none;html=1;rounded=0;fontSize=10;entryX=0.5;entryY=0;entryDx=0;entryDy=0;exitX=0.795;exitY=1.004;exitDx=0;exitDy=0;strokeColor=#000000;fontColor=#000000;exitPerimeter=0;" parent="1" source="MmX11wm5HvuTR1FrTXqp-397" target="MmX11wm5HvuTR1FrTXqp-408" edge="1">
          <mxGeometry width="50" height="50" relative="1" as="geometry">
            <mxPoint x="400.72" y="1073.88" as="sourcePoint" />
            <mxPoint x="400.72" y="1111.13" as="targetPoint" />
          </mxGeometry>
        </mxCell>
        <mxCell id="yooLV80YAIJDi9W8emZc-13" style="edgeStyle=orthogonalEdgeStyle;rounded=0;orthogonalLoop=1;jettySize=auto;html=1;exitX=0.5;exitY=0;exitDx=0;exitDy=0;entryX=0.864;entryY=1.005;entryDx=0;entryDy=0;entryPerimeter=0;" parent="1" source="MmX11wm5HvuTR1FrTXqp-569" target="MmX11wm5HvuTR1FrTXqp-2" edge="1">
          <mxGeometry relative="1" as="geometry" />
        </mxCell>
        <mxCell id="wt0K1hmHgsjhLcT-p73o-60" style="edgeStyle=orthogonalEdgeStyle;rounded=0;orthogonalLoop=1;jettySize=auto;html=1;exitX=0.5;exitY=1;exitDx=0;exitDy=0;entryX=1;entryY=0.5;entryDx=0;entryDy=0;" parent="1" source="MmX11wm5HvuTR1FrTXqp-569" target="MmX11wm5HvuTR1FrTXqp-347" edge="1">
          <mxGeometry relative="1" as="geometry" />
        </mxCell>
        <mxCell id="MmX11wm5HvuTR1FrTXqp-569" value="Ju-MiJu" style="shape=rhombus;perimeter=rhombusPerimeter;whiteSpace=wrap;html=1;align=center;fontStyle=1;fontSize=10;" parent="1" vertex="1">
          <mxGeometry x="519.75" y="492.02" width="60" height="60" as="geometry" />
        </mxCell>
        <mxCell id="MmX11wm5HvuTR1FrTXqp-571" value="EX" style="text;html=1;strokeColor=none;fillColor=none;align=center;verticalAlign=middle;whiteSpace=wrap;rounded=0;fontSize=8;fontStyle=1" parent="1" vertex="1">
          <mxGeometry x="543.53" y="491.02" width="12.43" height="20" as="geometry" />
        </mxCell>
        <mxCell id="MmX11wm5HvuTR1FrTXqp-572" value="" style="endArrow=none;html=1;rounded=0;exitX=1;exitY=0;exitDx=0;exitDy=0;entryX=0;entryY=0;entryDx=0;entryDy=0;" parent="1" source="MmX11wm5HvuTR1FrTXqp-569" target="MmX11wm5HvuTR1FrTXqp-569" edge="1">
          <mxGeometry width="50" height="50" relative="1" as="geometry">
            <mxPoint x="429.75000000000006" y="512.39" as="sourcePoint" />
            <mxPoint x="479.75000000000006" y="462.39" as="targetPoint" />
          </mxGeometry>
        </mxCell>
        <mxCell id="0EHpkeUix3jVTKtLxYQo-9" style="edgeStyle=orthogonalEdgeStyle;rounded=0;orthogonalLoop=1;jettySize=auto;html=1;exitX=0;exitY=0.5;exitDx=0;exitDy=0;entryX=1;entryY=0.5;entryDx=0;entryDy=0;" parent="1" source="MmX11wm5HvuTR1FrTXqp-678" target="0EHpkeUix3jVTKtLxYQo-7" edge="1">
          <mxGeometry relative="1" as="geometry" />
        </mxCell>
        <mxCell id="MmX11wm5HvuTR1FrTXqp-678" value="&lt;font style=&quot;font-size: 8px;&quot;&gt;&amp;nbsp;Conv-Asis&lt;/font&gt;" style="shape=rhombus;perimeter=rhombusPerimeter;whiteSpace=wrap;html=1;align=left;fontStyle=1;fontSize=10;" parent="1" vertex="1">
          <mxGeometry x="1170.45" y="1020.77" width="60" height="60" as="geometry" />
        </mxCell>
        <mxCell id="MmX11wm5HvuTR1FrTXqp-679" value="1:N" style="text;html=1;strokeColor=none;fillColor=none;align=center;verticalAlign=middle;whiteSpace=wrap;rounded=0;fontSize=15;fontStyle=1" parent="1" vertex="1">
          <mxGeometry x="1190.24" y="998.8899999999999" width="22.43" height="20" as="geometry" />
        </mxCell>
        <mxCell id="MmX11wm5HvuTR1FrTXqp-682" style="edgeStyle=orthogonalEdgeStyle;rounded=0;orthogonalLoop=1;jettySize=auto;html=1;exitX=1;exitY=0.5;exitDx=0;exitDy=0;entryX=0;entryY=0.5;entryDx=0;entryDy=0;" parent="1" source="MmX11wm5HvuTR1FrTXqp-680" target="MmX11wm5HvuTR1FrTXqp-278" edge="1">
          <mxGeometry relative="1" as="geometry" />
        </mxCell>
        <mxCell id="MmX11wm5HvuTR1FrTXqp-680" value="ID" style="text;html=1;strokeColor=none;fillColor=none;align=center;verticalAlign=middle;whiteSpace=wrap;rounded=0;fontSize=8;fontStyle=1" parent="1" vertex="1">
          <mxGeometry x="1215.99" y="1040.8899999999999" width="12.43" height="20" as="geometry" />
        </mxCell>
        <mxCell id="MmX11wm5HvuTR1FrTXqp-681" value="" style="endArrow=none;html=1;rounded=0;exitX=0;exitY=0;exitDx=0;exitDy=0;entryX=0;entryY=1;entryDx=0;entryDy=0;" parent="1" edge="1">
          <mxGeometry width="50" height="50" relative="1" as="geometry">
            <mxPoint x="1215.45" y="1035.77" as="sourcePoint" />
            <mxPoint x="1215.45" y="1065.7700000000004" as="targetPoint" />
          </mxGeometry>
        </mxCell>
        <mxCell id="MmX11wm5HvuTR1FrTXqp-689" value="Responsable&lt;br&gt;Comisión" style="shape=ext;margin=3;double=1;whiteSpace=wrap;html=1;align=center;" parent="1" vertex="1">
          <mxGeometry x="1116.94" y="705.8" width="100" height="60" as="geometry" />
        </mxCell>
        <mxCell id="MmX11wm5HvuTR1FrTXqp-694" value="fechaInicio" style="text;html=1;strokeColor=none;fillColor=none;align=left;verticalAlign=middle;whiteSpace=wrap;rounded=0;fontSize=9;" parent="1" vertex="1">
          <mxGeometry x="861.28" y="657.9399999999999" width="65" height="12.5" as="geometry" />
        </mxCell>
        <mxCell id="MmX11wm5HvuTR1FrTXqp-695" value="" style="ellipse;whiteSpace=wrap;html=1;aspect=fixed;fillColor=#FFFFFF;strokeColor=#000000;fontColor=#000000;" parent="1" vertex="1">
          <mxGeometry x="881.22" y="671.4400000000002" width="11" height="11" as="geometry" />
        </mxCell>
        <mxCell id="MmX11wm5HvuTR1FrTXqp-696" value="" style="ellipse;whiteSpace=wrap;html=1;aspect=fixed;fillColor=#FFFFFF;strokeColor=#000000;fontColor=#000000;" parent="1" vertex="1">
          <mxGeometry x="942.1100000000001" y="672.1900000000002" width="11" height="11" as="geometry" />
        </mxCell>
        <mxCell id="MmX11wm5HvuTR1FrTXqp-697" value="fechaFin" style="text;html=1;strokeColor=none;fillColor=none;align=left;verticalAlign=middle;whiteSpace=wrap;rounded=0;fontSize=9;" parent="1" vertex="1">
          <mxGeometry x="927.22" y="657.94" width="45.06" height="12.5" as="geometry" />
        </mxCell>
        <mxCell id="MmX11wm5HvuTR1FrTXqp-698" value="" style="endArrow=none;html=1;rounded=0;exitX=0.176;exitY=0.008;exitDx=0;exitDy=0;exitPerimeter=0;entryX=0.5;entryY=1;entryDx=0;entryDy=0;" parent="1" target="MmX11wm5HvuTR1FrTXqp-695" edge="1">
          <mxGeometry width="50" height="50" relative="1" as="geometry">
            <mxPoint x="886.3200000000002" y="702.9200000000001" as="sourcePoint" />
            <mxPoint x="884.28" y="667.94" as="targetPoint" />
          </mxGeometry>
        </mxCell>
        <mxCell id="MmX11wm5HvuTR1FrTXqp-699" value="" style="endArrow=none;html=1;rounded=0;entryX=0.5;entryY=1;entryDx=0;entryDy=0;exitX=0.782;exitY=0.008;exitDx=0;exitDy=0;exitPerimeter=0;" parent="1" target="MmX11wm5HvuTR1FrTXqp-696" edge="1">
          <mxGeometry width="50" height="50" relative="1" as="geometry">
            <mxPoint x="946.9200000000001" y="702.9200000000001" as="sourcePoint" />
            <mxPoint x="942.6999999999998" y="676.8999999999997" as="targetPoint" />
          </mxGeometry>
        </mxCell>
        <mxCell id="MmX11wm5HvuTR1FrTXqp-712" style="edgeStyle=orthogonalEdgeStyle;rounded=0;orthogonalLoop=1;jettySize=auto;html=1;exitX=1;exitY=0.5;exitDx=0;exitDy=0;entryX=0;entryY=0.5;entryDx=0;entryDy=0;" parent="1" source="MmX11wm5HvuTR1FrTXqp-706" target="MmX11wm5HvuTR1FrTXqp-689" edge="1">
          <mxGeometry relative="1" as="geometry" />
        </mxCell>
        <mxCell id="MmX11wm5HvuTR1FrTXqp-706" value="" style="triangle;whiteSpace=wrap;html=1;rotation=-90;direction=south;" parent="1" vertex="1">
          <mxGeometry x="1063.9400000000003" y="719.9399999999999" width="46" height="30" as="geometry" />
        </mxCell>
        <mxCell id="yooLV80YAIJDi9W8emZc-42" value="" style="edgeStyle=orthogonalEdgeStyle;rounded=0;orthogonalLoop=1;jettySize=auto;html=1;exitX=0;exitY=0.5;exitDx=0;exitDy=0;" parent="1" source="MmX11wm5HvuTR1FrTXqp-706" target="yooLV80YAIJDi9W8emZc-2" edge="1">
          <mxGeometry relative="1" as="geometry">
            <mxPoint x="1034.94" y="735.94" as="sourcePoint" />
          </mxGeometry>
        </mxCell>
        <mxCell id="MmX11wm5HvuTR1FrTXqp-707" value="ES_UN" style="text;html=1;strokeColor=none;fillColor=none;align=center;verticalAlign=middle;whiteSpace=wrap;rounded=0;fontSize=8;direction=south;" parent="1" vertex="1">
          <mxGeometry x="1080.5650000000003" y="720.6849999999998" width="10.75" height="30" as="geometry" />
        </mxCell>
        <mxCell id="yooLV80YAIJDi9W8emZc-2" value="Miembro&lt;br&gt;Comisión" style="shape=ext;margin=3;double=1;whiteSpace=wrap;html=1;align=center;" parent="1" vertex="1">
          <mxGeometry x="857.23" y="702.9200000000001" width="120" height="65" as="geometry" />
        </mxCell>
        <mxCell id="yooLV80YAIJDi9W8emZc-31" style="edgeStyle=orthogonalEdgeStyle;rounded=0;orthogonalLoop=1;jettySize=auto;html=1;exitX=0.5;exitY=1;exitDx=0;exitDy=0;entryX=0.5;entryY=0;entryDx=0;entryDy=0;" parent="1" source="yooLV80YAIJDi9W8emZc-15" target="yooLV80YAIJDi9W8emZc-2" edge="1">
          <mxGeometry relative="1" as="geometry" />
        </mxCell>
        <mxCell id="yooLV80YAIJDi9W8emZc-34" style="edgeStyle=orthogonalEdgeStyle;rounded=0;orthogonalLoop=1;jettySize=auto;html=1;exitX=0.5;exitY=0;exitDx=0;exitDy=0;entryX=0;entryY=0.5;entryDx=0;entryDy=0;startArrow=none;" parent="1" source="yooLV80YAIJDi9W8emZc-15" target="MmX11wm5HvuTR1FrTXqp-235" edge="1">
          <mxGeometry relative="1" as="geometry" />
        </mxCell>
        <mxCell id="yooLV80YAIJDi9W8emZc-15" value="MiCom-&lt;br&gt;Com" style="shape=rhombus;perimeter=rhombusPerimeter;whiteSpace=wrap;html=1;align=center;fontStyle=1;fontSize=10;" parent="1" vertex="1">
          <mxGeometry x="886.78" y="583.19" width="60" height="60" as="geometry" />
        </mxCell>
        <mxCell id="yooLV80YAIJDi9W8emZc-17" value="ID" style="text;html=1;strokeColor=none;fillColor=none;align=center;verticalAlign=middle;whiteSpace=wrap;rounded=0;fontSize=8;fontStyle=1" parent="1" vertex="1">
          <mxGeometry x="910.5699999999999" y="583.19" width="12.43" height="20" as="geometry" />
        </mxCell>
        <mxCell id="yooLV80YAIJDi9W8emZc-18" value="" style="endArrow=none;html=1;rounded=0;exitX=1;exitY=0;exitDx=0;exitDy=0;entryX=0;entryY=0;entryDx=0;entryDy=0;" parent="1" source="yooLV80YAIJDi9W8emZc-15" target="yooLV80YAIJDi9W8emZc-15" edge="1">
          <mxGeometry width="50" height="50" relative="1" as="geometry">
            <mxPoint x="796.78" y="603.5600000000001" as="sourcePoint" />
            <mxPoint x="846.78" y="553.5600000000001" as="targetPoint" />
          </mxGeometry>
        </mxCell>
        <mxCell id="yooLV80YAIJDi9W8emZc-27" style="edgeStyle=orthogonalEdgeStyle;rounded=0;orthogonalLoop=1;jettySize=auto;html=1;exitX=0.5;exitY=1;exitDx=0;exitDy=0;entryX=1;entryY=0.5;entryDx=0;entryDy=0;" parent="1" source="yooLV80YAIJDi9W8emZc-23" target="MmX11wm5HvuTR1FrTXqp-397" edge="1">
          <mxGeometry relative="1" as="geometry">
            <Array as="points">
              <mxPoint x="917" y="950" />
              <mxPoint x="880" y="950" />
              <mxPoint x="880" y="1010" />
              <mxPoint x="580" y="1010" />
              <mxPoint x="580" y="1034" />
            </Array>
          </mxGeometry>
        </mxCell>
        <mxCell id="yooLV80YAIJDi9W8emZc-33" style="edgeStyle=orthogonalEdgeStyle;rounded=0;orthogonalLoop=1;jettySize=auto;html=1;exitX=0.5;exitY=0;exitDx=0;exitDy=0;entryX=0.5;entryY=1;entryDx=0;entryDy=0;" parent="1" source="yooLV80YAIJDi9W8emZc-23" target="yooLV80YAIJDi9W8emZc-2" edge="1">
          <mxGeometry relative="1" as="geometry" />
        </mxCell>
        <mxCell id="yooLV80YAIJDi9W8emZc-23" value="Usu-&lt;br&gt;MiCom" style="shape=rhombus;perimeter=rhombusPerimeter;whiteSpace=wrap;html=1;align=center;fontStyle=1;fontSize=10;" parent="1" vertex="1">
          <mxGeometry x="886.78" y="862.69" width="60" height="60" as="geometry" />
        </mxCell>
        <mxCell id="yooLV80YAIJDi9W8emZc-24" value="1:N" style="text;html=1;strokeColor=none;fillColor=none;align=center;verticalAlign=middle;whiteSpace=wrap;rounded=0;fontSize=15;fontStyle=1;rotation=90;" parent="1" vertex="1">
          <mxGeometry x="950.4699999999998" y="883.1800000000001" width="22.43" height="20" as="geometry" />
        </mxCell>
        <mxCell id="yooLV80YAIJDi9W8emZc-25" value="E" style="text;html=1;strokeColor=none;fillColor=none;align=center;verticalAlign=middle;whiteSpace=wrap;rounded=0;fontSize=8;fontStyle=1" parent="1" vertex="1">
          <mxGeometry x="889.3199999999999" y="882.8100000000001" width="12.43" height="20" as="geometry" />
        </mxCell>
        <mxCell id="yooLV80YAIJDi9W8emZc-26" value="" style="endArrow=none;html=1;rounded=0;exitX=0;exitY=0;exitDx=0;exitDy=0;entryX=0;entryY=1;entryDx=0;entryDy=0;" parent="1" source="yooLV80YAIJDi9W8emZc-23" target="yooLV80YAIJDi9W8emZc-23" edge="1">
          <mxGeometry width="50" height="50" relative="1" as="geometry">
            <mxPoint x="796.78" y="883.0600000000001" as="sourcePoint" />
            <mxPoint x="846.78" y="833.0600000000001" as="targetPoint" />
          </mxGeometry>
        </mxCell>
        <mxCell id="yooLV80YAIJDi9W8emZc-61" value="idComisión" style="text;html=1;strokeColor=none;fillColor=none;align=left;verticalAlign=middle;whiteSpace=wrap;rounded=0;fontSize=9;" parent="1" vertex="1">
          <mxGeometry x="784" y="733.4200000000001" width="28.52" height="10" as="geometry" />
        </mxCell>
        <mxCell id="yooLV80YAIJDi9W8emZc-62" value="idUsuario" style="text;html=1;strokeColor=none;fillColor=none;align=left;verticalAlign=middle;whiteSpace=wrap;rounded=0;fontSize=9;" parent="1" vertex="1">
          <mxGeometry x="788" y="718.0400000000001" width="35.52" height="9.38" as="geometry" />
        </mxCell>
        <mxCell id="yooLV80YAIJDi9W8emZc-63" style="edgeStyle=orthogonalEdgeStyle;rounded=0;orthogonalLoop=1;jettySize=auto;html=1;exitX=1;exitY=0.5;exitDx=0;exitDy=0;entryX=0.002;entryY=0.34;entryDx=0;entryDy=0;entryPerimeter=0;fontColor=#B3B3B3;endArrow=none;endFill=0;" parent="1" source="yooLV80YAIJDi9W8emZc-64" edge="1">
          <mxGeometry relative="1" as="geometry">
            <mxPoint x="857.2299999999998" y="726.34" as="targetPoint" />
          </mxGeometry>
        </mxCell>
        <mxCell id="yooLV80YAIJDi9W8emZc-64" value="" style="ellipse;whiteSpace=wrap;html=1;aspect=fixed;fillColor=#B3B3B3;strokeColor=#000000;fontColor=#000000;" parent="1" vertex="1">
          <mxGeometry x="832.7399999999998" y="719.0400000000002" width="11" height="11" as="geometry" />
        </mxCell>
        <mxCell id="yooLV80YAIJDi9W8emZc-65" style="edgeStyle=orthogonalEdgeStyle;rounded=0;orthogonalLoop=1;jettySize=auto;html=1;exitX=1;exitY=0.5;exitDx=0;exitDy=0;entryX=0.002;entryY=0.585;entryDx=0;entryDy=0;entryPerimeter=0;fontColor=#B3B3B3;endArrow=none;endFill=0;" parent="1" source="yooLV80YAIJDi9W8emZc-66" edge="1">
          <mxGeometry relative="1" as="geometry">
            <mxPoint x="857.2299999999998" y="741.04" as="targetPoint" />
          </mxGeometry>
        </mxCell>
        <mxCell id="yooLV80YAIJDi9W8emZc-66" value="" style="ellipse;whiteSpace=wrap;html=1;aspect=fixed;fillColor=#B3B3B3;strokeColor=#000000;fontColor=#000000;" parent="1" vertex="1">
          <mxGeometry x="833" y="735.0400000000002" width="11" height="11" as="geometry" />
        </mxCell>
        <mxCell id="yooLV80YAIJDi9W8emZc-67" value="" style="edgeStyle=none;rounded=0;orthogonalLoop=1;jettySize=auto;html=1;endArrow=none;endFill=0;exitX=0.5;exitY=0;exitDx=0;exitDy=0;" parent="1" source="yooLV80YAIJDi9W8emZc-68" edge="1">
          <mxGeometry relative="1" as="geometry">
            <mxPoint x="1154.19" y="777.6699999999998" as="sourcePoint" />
            <mxPoint x="1153.94" y="764.6699999999998" as="targetPoint" />
          </mxGeometry>
        </mxCell>
        <mxCell id="yooLV80YAIJDi9W8emZc-68" value="" style="ellipse;whiteSpace=wrap;html=1;aspect=fixed;fillColor=#CCCCCC;strokeColor=#000000;fontColor=#000000;" parent="1" vertex="1">
          <mxGeometry x="1148.69" y="782.6699999999998" width="11" height="11" as="geometry" />
        </mxCell>
        <mxCell id="yooLV80YAIJDi9W8emZc-69" value="id" style="text;html=1;strokeColor=none;fillColor=none;align=left;verticalAlign=middle;whiteSpace=wrap;rounded=0;fontSize=9;" parent="1" vertex="1">
          <mxGeometry x="1164.44" y="783.4199999999998" width="48.5" height="11.75" as="geometry" />
        </mxCell>
        <mxCell id="yooLV80YAIJDi9W8emZc-70" value="responsable" style="text;html=1;strokeColor=none;fillColor=none;align=left;verticalAlign=middle;whiteSpace=wrap;rounded=0;fontSize=9;" parent="1" vertex="1">
          <mxGeometry x="1086.4400000000003" y="774.31" width="21" height="12.5" as="geometry" />
        </mxCell>
        <mxCell id="yooLV80YAIJDi9W8emZc-71" value="" style="endArrow=none;html=1;rounded=0;entryX=0.5;entryY=0;entryDx=0;entryDy=0;exitX=0.174;exitY=0.907;exitDx=0;exitDy=0;exitPerimeter=0;" parent="1" source="MmX11wm5HvuTR1FrTXqp-706" target="yooLV80YAIJDi9W8emZc-72" edge="1">
          <mxGeometry width="50" height="50" relative="1" as="geometry">
            <mxPoint x="1082.94" y="750.94" as="sourcePoint" />
            <mxPoint x="1072.5700000000002" y="764.56" as="targetPoint" />
          </mxGeometry>
        </mxCell>
        <mxCell id="yooLV80YAIJDi9W8emZc-72" value="" style="ellipse;whiteSpace=wrap;html=1;aspect=fixed;fillColor=#FFFFFF;strokeColor=#000000;fontColor=#000000;" parent="1" vertex="1">
          <mxGeometry x="1071.91" y="774.31" width="11" height="11" as="geometry" />
        </mxCell>
        <mxCell id="_VbOPjBLyvqnEfAaVFIH-1" value="Centro" style="whiteSpace=wrap;html=1;align=center;points=[[0,0,0,0,0],[0,0.25,0,0,0],[0,0.5,0,0,0],[0,0.75,0,0,0],[0,1,0,0,0],[0.12,0,0,0,0],[0.25,0,0,0,0],[0.25,1,0,0,0],[0.38,0,0,0,0],[0.5,0,0,0,0],[0.5,1,0,0,0],[0.63,0,0,0,0],[0.75,0,0,0,0],[0.75,1,0,0,0],[0.88,0,0,0,0],[1,0,0,0,0],[1,0.25,0,0,0],[1,0.5,0,0,0],[1,0.75,0,0,0],[1,1,0,0,0]];" parent="1" vertex="1">
          <mxGeometry x="124.64000000000007" y="312.44" width="100" height="60" as="geometry" />
        </mxCell>
        <mxCell id="wt0K1hmHgsjhLcT-p73o-23" style="edgeStyle=orthogonalEdgeStyle;rounded=0;orthogonalLoop=1;jettySize=auto;html=1;exitX=0;exitY=0.5;exitDx=0;exitDy=0;entryX=0.993;entryY=0.387;entryDx=0;entryDy=0;entryPerimeter=0;" parent="1" source="_VbOPjBLyvqnEfAaVFIH-2" target="_VbOPjBLyvqnEfAaVFIH-1" edge="1">
          <mxGeometry relative="1" as="geometry" />
        </mxCell>
        <mxCell id="_VbOPjBLyvqnEfAaVFIH-2" value="&amp;nbsp; &amp;nbsp;Ct - Ju" style="shape=rhombus;perimeter=rhombusPerimeter;whiteSpace=wrap;html=1;align=left;fontStyle=1;fontSize=10;" parent="1" vertex="1">
          <mxGeometry x="321.3" y="306.44" width="60" height="60" as="geometry" />
        </mxCell>
        <mxCell id="_VbOPjBLyvqnEfAaVFIH-4" value="1:N" style="text;html=1;strokeColor=none;fillColor=none;align=center;verticalAlign=middle;whiteSpace=wrap;rounded=0;fontSize=15;fontStyle=1" parent="1" vertex="1">
          <mxGeometry x="340.09" y="284.56" width="22.43" height="20" as="geometry" />
        </mxCell>
        <mxCell id="_VbOPjBLyvqnEfAaVFIH-5" value="(1,1)" style="text;html=1;strokeColor=none;fillColor=none;align=left;verticalAlign=middle;whiteSpace=wrap;rounded=0;fontSize=9;" parent="1" vertex="1">
          <mxGeometry x="232.09000000000006" y="321.12" width="22.5" height="12.5" as="geometry" />
        </mxCell>
        <mxCell id="_VbOPjBLyvqnEfAaVFIH-6" value="coordina" style="text;html=1;strokeColor=none;fillColor=none;align=left;verticalAlign=middle;whiteSpace=wrap;rounded=0;fontSize=9;" parent="1" vertex="1">
          <mxGeometry x="230.09000000000006" y="340.12" width="50" height="12.5" as="geometry" />
        </mxCell>
        <mxCell id="_VbOPjBLyvqnEfAaVFIH-7" value="nombre" style="text;html=1;strokeColor=none;fillColor=none;align=left;verticalAlign=middle;whiteSpace=wrap;rounded=0;fontSize=9;" parent="1" vertex="1">
          <mxGeometry x="143.75000000000009" y="245.94" width="37.5" height="12.5" as="geometry" />
        </mxCell>
        <mxCell id="_VbOPjBLyvqnEfAaVFIH-8" value="dirección" style="text;html=1;strokeColor=none;fillColor=none;align=left;verticalAlign=middle;whiteSpace=wrap;rounded=0;fontSize=9;" parent="1" vertex="1">
          <mxGeometry x="157.14000000000007" y="259.94" width="63.5" height="12.5" as="geometry" />
        </mxCell>
        <mxCell id="_VbOPjBLyvqnEfAaVFIH-9" value="tipo" style="text;html=1;strokeColor=none;fillColor=none;align=left;verticalAlign=middle;whiteSpace=wrap;rounded=0;fontSize=9;" parent="1" vertex="1">
          <mxGeometry x="169.14000000000007" y="273.5" width="53.5" height="12.5" as="geometry" />
        </mxCell>
        <mxCell id="_VbOPjBLyvqnEfAaVFIH-10" value="" style="endArrow=none;html=1;rounded=0;fontSize=11;entryX=0.5;entryY=1;entryDx=0;entryDy=0;exitX=0;exitY=0;exitDx=0;exitDy=0;" parent="1" source="_VbOPjBLyvqnEfAaVFIH-1" target="_VbOPjBLyvqnEfAaVFIH-20" edge="1">
          <mxGeometry width="50" height="50" relative="1" as="geometry">
            <mxPoint x="204.64000000000007" y="292.44" as="sourcePoint" />
            <mxPoint x="217.14000000000007" y="199.94" as="targetPoint" />
          </mxGeometry>
        </mxCell>
        <mxCell id="_VbOPjBLyvqnEfAaVFIH-11" value="" style="endArrow=none;html=1;rounded=0;fontSize=11;entryX=0;entryY=0.5;entryDx=0;entryDy=0;exitX=0.25;exitY=0;exitDx=0;exitDy=0;startArrow=none;" parent="1" source="_VbOPjBLyvqnEfAaVFIH-23" edge="1">
          <mxGeometry width="50" height="50" relative="1" as="geometry">
            <mxPoint x="134.64000000000007" y="335.44" as="sourcePoint" />
            <mxPoint x="147.14000000000007" y="268.94" as="targetPoint" />
          </mxGeometry>
        </mxCell>
        <mxCell id="_VbOPjBLyvqnEfAaVFIH-12" value="" style="endArrow=none;html=1;rounded=0;fontSize=11;entryX=0.5;entryY=1;entryDx=0;entryDy=0;exitX=0.38;exitY=0;exitDx=0;exitDy=0;exitPerimeter=0;" parent="1" source="_VbOPjBLyvqnEfAaVFIH-1" target="_VbOPjBLyvqnEfAaVFIH-21" edge="1">
          <mxGeometry width="50" height="50" relative="1" as="geometry">
            <mxPoint x="204.64000000000007" y="292.44" as="sourcePoint" />
            <mxPoint x="217.14000000000007" y="238.69" as="targetPoint" />
          </mxGeometry>
        </mxCell>
        <mxCell id="wt0K1hmHgsjhLcT-p73o-24" style="edgeStyle=orthogonalEdgeStyle;rounded=0;orthogonalLoop=1;jettySize=auto;html=1;exitX=1;exitY=0.5;exitDx=0;exitDy=0;entryX=0;entryY=0.5;entryDx=0;entryDy=0;" parent="1" source="_VbOPjBLyvqnEfAaVFIH-15" target="MmX11wm5HvuTR1FrTXqp-2" edge="1">
          <mxGeometry relative="1" as="geometry" />
        </mxCell>
        <mxCell id="_VbOPjBLyvqnEfAaVFIH-15" value="EX" style="text;html=1;strokeColor=none;fillColor=none;align=center;verticalAlign=middle;whiteSpace=wrap;rounded=0;fontSize=8;fontStyle=1" parent="1" vertex="1">
          <mxGeometry x="365.84" y="326.56" width="12.43" height="20" as="geometry" />
        </mxCell>
        <mxCell id="_VbOPjBLyvqnEfAaVFIH-16" value="" style="endArrow=none;html=1;rounded=0;exitX=0;exitY=0;exitDx=0;exitDy=0;entryX=0;entryY=1;entryDx=0;entryDy=0;" parent="1" edge="1">
          <mxGeometry width="50" height="50" relative="1" as="geometry">
            <mxPoint x="366.3" y="321.43999999999994" as="sourcePoint" />
            <mxPoint x="366.3" y="351.43999999999994" as="targetPoint" />
          </mxGeometry>
        </mxCell>
        <mxCell id="_VbOPjBLyvqnEfAaVFIH-17" value="id" style="text;html=1;strokeColor=none;fillColor=none;align=left;verticalAlign=middle;whiteSpace=wrap;rounded=0;fontSize=9;" parent="1" vertex="1">
          <mxGeometry x="134.14000000000007" y="232.94" width="70.5" height="12.5" as="geometry" />
        </mxCell>
        <mxCell id="_VbOPjBLyvqnEfAaVFIH-18" value="" style="endArrow=none;html=1;rounded=0;fontSize=10;fontColor=#000000;strokeColor=#000000;exitX=0.12;exitY=0;exitDx=0;exitDy=0;entryX=0.5;entryY=1;entryDx=0;entryDy=0;exitPerimeter=0;" parent="1" source="_VbOPjBLyvqnEfAaVFIH-1" target="_VbOPjBLyvqnEfAaVFIH-19" edge="1">
          <mxGeometry width="50" height="50" relative="1" as="geometry">
            <mxPoint x="204.64000000000007" y="332.44" as="sourcePoint" />
            <mxPoint x="217.14000000000007" y="212.94" as="targetPoint" />
          </mxGeometry>
        </mxCell>
        <mxCell id="_VbOPjBLyvqnEfAaVFIH-19" value="" style="ellipse;whiteSpace=wrap;html=1;aspect=fixed;fillColor=#FFFFFF;strokeColor=#000000;fontColor=#000000;" parent="1" vertex="1">
          <mxGeometry x="131.14000000000007" y="247.44" width="11" height="11" as="geometry" />
        </mxCell>
        <mxCell id="_VbOPjBLyvqnEfAaVFIH-20" value="" style="ellipse;whiteSpace=wrap;html=1;aspect=fixed;fillColor=#000000;strokeColor=#000000;fontColor=#000000;" parent="1" vertex="1">
          <mxGeometry x="119.14000000000007" y="234.44" width="11" height="11" as="geometry" />
        </mxCell>
        <mxCell id="_VbOPjBLyvqnEfAaVFIH-21" value="" style="ellipse;whiteSpace=wrap;html=1;aspect=fixed;fillColor=#FFFFFF;strokeColor=#000000;fontColor=#000000;" parent="1" vertex="1">
          <mxGeometry x="157.14000000000007" y="274.44" width="11" height="11" as="geometry" />
        </mxCell>
        <mxCell id="_VbOPjBLyvqnEfAaVFIH-23" value="" style="ellipse;whiteSpace=wrap;html=1;aspect=fixed;fillColor=#FFFFFF;strokeColor=#000000;fontColor=#000000;" parent="1" vertex="1">
          <mxGeometry x="144.14000000000007" y="261.44" width="11" height="11" as="geometry" />
        </mxCell>
        <mxCell id="_VbOPjBLyvqnEfAaVFIH-24" value="" style="endArrow=none;html=1;rounded=0;fontSize=11;entryX=0.5;entryY=1;entryDx=0;entryDy=0;exitX=0.25;exitY=0;exitDx=0;exitDy=0;" parent="1" source="_VbOPjBLyvqnEfAaVFIH-1" target="_VbOPjBLyvqnEfAaVFIH-23" edge="1">
          <mxGeometry width="50" height="50" relative="1" as="geometry">
            <mxPoint x="149.64000000000007" y="312.44" as="sourcePoint" />
            <mxPoint x="217.14000000000007" y="225.94" as="targetPoint" />
          </mxGeometry>
        </mxCell>
        <mxCell id="_VbOPjBLyvqnEfAaVFIH-31" value="1:N" style="text;html=1;strokeColor=none;fillColor=none;align=center;verticalAlign=middle;whiteSpace=wrap;rounded=0;fontSize=15;fontStyle=1;direction=east;flipV=0;flipH=0;rotation=90;" parent="1" vertex="1">
          <mxGeometry x="946.78" y="603.4300000000001" width="22.5" height="15.75" as="geometry" />
        </mxCell>
        <mxCell id="_VbOPjBLyvqnEfAaVFIH-35" value="1:N" style="text;html=1;strokeColor=none;fillColor=none;align=center;verticalAlign=middle;whiteSpace=wrap;rounded=0;fontSize=15;fontStyle=1;rotation=90;" parent="1" vertex="1">
          <mxGeometry x="581.3499999999999" y="511.02" width="22.43" height="20" as="geometry" />
        </mxCell>
        <mxCell id="0EHpkeUix3jVTKtLxYQo-8" style="edgeStyle=orthogonalEdgeStyle;rounded=0;orthogonalLoop=1;jettySize=auto;html=1;exitX=1;exitY=0.5;exitDx=0;exitDy=0;entryX=0;entryY=0.5;entryDx=0;entryDy=0;" parent="1" source="0EHpkeUix3jVTKtLxYQo-3" target="0EHpkeUix3jVTKtLxYQo-7" edge="1">
          <mxGeometry relative="1" as="geometry" />
        </mxCell>
        <mxCell id="0EHpkeUix3jVTKtLxYQo-10" style="edgeStyle=orthogonalEdgeStyle;rounded=0;orthogonalLoop=1;jettySize=auto;html=1;exitX=0;exitY=0.5;exitDx=0;exitDy=0;entryX=1;entryY=0.75;entryDx=0;entryDy=0;" parent="1" source="0EHpkeUix3jVTKtLxYQo-3" target="MmX11wm5HvuTR1FrTXqp-397" edge="1">
          <mxGeometry relative="1" as="geometry" />
        </mxCell>
        <mxCell id="0EHpkeUix3jVTKtLxYQo-3" value="&amp;nbsp; &amp;nbsp; Us-Asis" style="shape=rhombus;perimeter=rhombusPerimeter;whiteSpace=wrap;html=1;align=center;fontStyle=1;fontSize=10;" parent="1" vertex="1">
          <mxGeometry x="883.1100000000001" y="1020.45" width="60" height="60" as="geometry" />
        </mxCell>
        <mxCell id="0EHpkeUix3jVTKtLxYQo-4" value="1:N" style="text;html=1;strokeColor=none;fillColor=none;align=center;verticalAlign=middle;whiteSpace=wrap;rounded=0;fontSize=15;fontStyle=1" parent="1" vertex="1">
          <mxGeometry x="902.8999999999999" y="998.5699999999998" width="22.43" height="20" as="geometry" />
        </mxCell>
        <mxCell id="0EHpkeUix3jVTKtLxYQo-5" value="ID" style="text;html=1;strokeColor=none;fillColor=none;align=center;verticalAlign=middle;whiteSpace=wrap;rounded=0;fontSize=8;fontStyle=1" parent="1" vertex="1">
          <mxGeometry x="887.6499999999999" y="1040.57" width="12.43" height="20" as="geometry" />
        </mxCell>
        <mxCell id="0EHpkeUix3jVTKtLxYQo-6" value="" style="endArrow=none;html=1;rounded=0;exitX=0;exitY=0;exitDx=0;exitDy=0;entryX=0;entryY=1;entryDx=0;entryDy=0;" parent="1" edge="1">
          <mxGeometry width="50" height="50" relative="1" as="geometry">
            <mxPoint x="898.1100000000001" y="1035.45" as="sourcePoint" />
            <mxPoint x="898.1100000000001" y="1065.4500000000005" as="targetPoint" />
          </mxGeometry>
        </mxCell>
        <mxCell id="0EHpkeUix3jVTKtLxYQo-7" value="Asistente" style="shape=ext;margin=3;double=1;whiteSpace=wrap;html=1;align=center;" parent="1" vertex="1">
          <mxGeometry x="1002.44" y="1021.1899999999998" width="100" height="60" as="geometry" />
        </mxCell>
        <mxCell id="0EHpkeUix3jVTKtLxYQo-13" style="edgeStyle=none;rounded=0;orthogonalLoop=1;jettySize=auto;html=1;exitX=0.5;exitY=0;exitDx=0;exitDy=0;endArrow=none;endFill=0;entryX=0.75;entryY=1;entryDx=0;entryDy=0;" parent="1" source="0EHpkeUix3jVTKtLxYQo-14" edge="1">
          <mxGeometry relative="1" as="geometry">
            <mxPoint x="873.0300000000002" y="767.9199999999998" as="targetPoint" />
          </mxGeometry>
        </mxCell>
        <mxCell id="0EHpkeUix3jVTKtLxYQo-14" value="" style="ellipse;whiteSpace=wrap;html=1;aspect=fixed;fillColor=#FFFFFF;strokeColor=#000000;fontColor=#000000;" parent="1" vertex="1">
          <mxGeometry x="867.5300000000002" y="778.4199999999998" width="11" height="11" as="geometry" />
        </mxCell>
        <mxCell id="0EHpkeUix3jVTKtLxYQo-15" value="representación" style="text;html=1;strokeColor=none;fillColor=none;align=left;verticalAlign=middle;whiteSpace=wrap;rounded=0;fontSize=9;" parent="1" vertex="1">
          <mxGeometry x="864.2800000000002" y="791.5400000000002" width="22.74" height="8.75" as="geometry" />
        </mxCell>
        <mxCell id="0EHpkeUix3jVTKtLxYQo-23" value="" style="endArrow=none;html=1;rounded=0;entryX=0.5;entryY=0;entryDx=0;entryDy=0;exitX=0.398;exitY=1.026;exitDx=0;exitDy=0;exitPerimeter=0;" parent="1" source="0EHpkeUix3jVTKtLxYQo-7" target="0EHpkeUix3jVTKtLxYQo-24" edge="1">
          <mxGeometry width="50" height="50" relative="1" as="geometry">
            <mxPoint x="1063.9" y="1080.8900000000003" as="sourcePoint" />
            <mxPoint x="1064.1100000000001" y="1091.63" as="targetPoint" />
          </mxGeometry>
        </mxCell>
        <mxCell id="0EHpkeUix3jVTKtLxYQo-24" value="" style="ellipse;whiteSpace=wrap;html=1;aspect=fixed;fillColor=#CCCCCC;strokeColor=#000000;fontColor=#000000;" parent="1" vertex="1">
          <mxGeometry x="1036.6100000000001" y="1091.63" width="11" height="11" as="geometry" />
        </mxCell>
        <mxCell id="0EHpkeUix3jVTKtLxYQo-25" value="idUsuario" style="text;html=1;strokeColor=none;fillColor=none;align=left;verticalAlign=middle;whiteSpace=wrap;rounded=0;fontSize=9;" parent="1" vertex="1">
          <mxGeometry x="1033.69" y="1104.63" width="30.25" height="12.5" as="geometry" />
        </mxCell>
        <mxCell id="0EHpkeUix3jVTKtLxYQo-26" value="" style="endArrow=none;html=1;rounded=0;entryX=0.5;entryY=0;entryDx=0;entryDy=0;exitX=0.797;exitY=0.998;exitDx=0;exitDy=0;exitPerimeter=0;" parent="1" edge="1">
          <mxGeometry width="50" height="50" relative="1" as="geometry">
            <mxPoint x="1090.6100000000001" y="1080.77" as="sourcePoint" />
            <mxPoint x="1090.8200000000002" y="1091.5099999999998" as="targetPoint" />
          </mxGeometry>
        </mxCell>
        <mxCell id="0EHpkeUix3jVTKtLxYQo-27" value="" style="ellipse;whiteSpace=wrap;html=1;aspect=fixed;fillColor=#CCCCCC;strokeColor=#000000;fontColor=#000000;" parent="1" vertex="1">
          <mxGeometry x="1085.3200000000002" y="1091.5099999999998" width="11" height="11" as="geometry" />
        </mxCell>
        <mxCell id="0EHpkeUix3jVTKtLxYQo-28" value="idConvocatoria" style="text;html=1;strokeColor=none;fillColor=none;align=left;verticalAlign=middle;whiteSpace=wrap;rounded=0;fontSize=9;" parent="1" vertex="1">
          <mxGeometry x="1079.3300000000002" y="1105.82" width="30.25" height="12.5" as="geometry" />
        </mxCell>
        <mxCell id="4DlMVcPhKt1gNQq_mQ72-7" value="gestiona" style="text;html=1;strokeColor=none;fillColor=none;align=left;verticalAlign=middle;whiteSpace=wrap;rounded=0;fontSize=9;" parent="1" vertex="1">
          <mxGeometry x="452.50999999999993" y="1021.15" width="55" height="12.5" as="geometry" />
        </mxCell>
        <mxCell id="4DlMVcPhKt1gNQq_mQ72-8" value="(1,1)" style="text;html=1;strokeColor=none;fillColor=none;align=left;verticalAlign=middle;whiteSpace=wrap;rounded=0;fontSize=9;" parent="1" vertex="1">
          <mxGeometry x="492.3799999999999" y="1021.01" width="25.5" height="12.5" as="geometry" />
        </mxCell>
        <mxCell id="4DlMVcPhKt1gNQq_mQ72-9" value="gestiona" style="text;html=1;strokeColor=none;fillColor=none;align=left;verticalAlign=middle;whiteSpace=wrap;rounded=0;fontSize=9;" parent="1" vertex="1">
          <mxGeometry x="469.68" y="1051.95" width="55" height="12.5" as="geometry" />
        </mxCell>
        <mxCell id="4DlMVcPhKt1gNQq_mQ72-10" value="(1,1)" style="text;html=1;strokeColor=none;fillColor=none;align=left;verticalAlign=middle;whiteSpace=wrap;rounded=0;fontSize=9;" parent="1" vertex="1">
          <mxGeometry x="447.64999999999986" y="1051.95" width="25.5" height="12.5" as="geometry" />
        </mxCell>
        <mxCell id="4DlMVcPhKt1gNQq_mQ72-12" value="gestiona" style="text;html=1;strokeColor=none;fillColor=none;align=left;verticalAlign=middle;whiteSpace=wrap;rounded=0;fontSize=9;" parent="1" vertex="1">
          <mxGeometry x="955.5700000000002" y="1037.5900000000001" width="55" height="12.5" as="geometry" />
        </mxCell>
        <mxCell id="4DlMVcPhKt1gNQq_mQ72-13" value="(0,N)" style="text;html=1;strokeColor=none;fillColor=none;align=left;verticalAlign=middle;whiteSpace=wrap;rounded=0;fontSize=9;" parent="1" vertex="1">
          <mxGeometry x="976.19" y="1052.95" width="25.5" height="12.5" as="geometry" />
        </mxCell>
        <mxCell id="4DlMVcPhKt1gNQq_mQ72-14" value="gestiona" style="text;html=1;strokeColor=none;fillColor=none;align=left;verticalAlign=middle;whiteSpace=wrap;rounded=0;fontSize=9;" parent="1" vertex="1">
          <mxGeometry x="1264.94" y="1035.45" width="55" height="12.5" as="geometry" />
        </mxCell>
        <mxCell id="4DlMVcPhKt1gNQq_mQ72-15" value="gestiona" style="text;html=1;strokeColor=none;fillColor=none;align=left;verticalAlign=middle;whiteSpace=wrap;rounded=0;fontSize=9;" parent="1" vertex="1">
          <mxGeometry x="1113.5800000000002" y="1035.45" width="55" height="12.5" as="geometry" />
        </mxCell>
        <mxCell id="4DlMVcPhKt1gNQq_mQ72-17" value="(1,1)" style="text;html=1;strokeColor=none;fillColor=none;align=left;verticalAlign=middle;whiteSpace=wrap;rounded=0;fontSize=9;" parent="1" vertex="1">
          <mxGeometry x="1286.0800000000004" y="1053.51" width="25.5" height="12.5" as="geometry" />
        </mxCell>
        <mxCell id="4DlMVcPhKt1gNQq_mQ72-18" value="(1,N)" style="text;html=1;strokeColor=none;fillColor=none;align=left;verticalAlign=middle;whiteSpace=wrap;rounded=0;fontSize=9;" parent="1" vertex="1">
          <mxGeometry x="1104.44" y="1053.51" width="25.5" height="12.5" as="geometry" />
        </mxCell>
        <mxCell id="wt0K1hmHgsjhLcT-p73o-5" value="fechaConstitucion" style="text;html=1;strokeColor=none;fillColor=none;align=left;verticalAlign=middle;whiteSpace=wrap;rounded=0;fontSize=9;" parent="1" vertex="1">
          <mxGeometry x="493.76000000000005" y="249.87999999999988" width="65" height="12.5" as="geometry" />
        </mxCell>
        <mxCell id="wt0K1hmHgsjhLcT-p73o-6" value="" style="ellipse;whiteSpace=wrap;html=1;aspect=fixed;fillColor=#FFFFFF;strokeColor=#000000;fontColor=#000000;" parent="1" vertex="1">
          <mxGeometry x="481.83" y="249.8800000000001" width="11" height="11" as="geometry" />
        </mxCell>
        <mxCell id="wt0K1hmHgsjhLcT-p73o-7" value="" style="ellipse;whiteSpace=wrap;html=1;aspect=fixed;fillColor=#FFFFFF;strokeColor=#000000;fontColor=#000000;" parent="1" vertex="1">
          <mxGeometry x="492.8299999999999" y="264.95000000000005" width="12.05" height="12.05" as="geometry" />
        </mxCell>
        <mxCell id="wt0K1hmHgsjhLcT-p73o-8" value="fechaFin" style="text;html=1;strokeColor=none;fillColor=none;align=left;verticalAlign=middle;whiteSpace=wrap;rounded=0;fontSize=9;" parent="1" vertex="1">
          <mxGeometry x="507.5799999999999" y="263.95" width="45.06" height="12.5" as="geometry" />
        </mxCell>
        <mxCell id="wt0K1hmHgsjhLcT-p73o-9" value="" style="endArrow=none;html=1;rounded=0;entryX=0.5;entryY=1;entryDx=0;entryDy=0;exitX=0.25;exitY=0;exitDx=0;exitDy=0;" parent="1" source="MmX11wm5HvuTR1FrTXqp-2" target="wt0K1hmHgsjhLcT-p73o-6" edge="1">
          <mxGeometry width="50" height="50" relative="1" as="geometry">
            <mxPoint x="487.7600000000002" y="270.6199999999999" as="sourcePoint" />
            <mxPoint x="498.21999999999997" y="236.68" as="targetPoint" />
          </mxGeometry>
        </mxCell>
        <mxCell id="wt0K1hmHgsjhLcT-p73o-10" value="" style="endArrow=none;html=1;rounded=0;entryX=0.5;entryY=1;entryDx=0;entryDy=0;exitX=0.367;exitY=-0.004;exitDx=0;exitDy=0;exitPerimeter=0;" parent="1" source="MmX11wm5HvuTR1FrTXqp-2" target="wt0K1hmHgsjhLcT-p73o-7" edge="1">
          <mxGeometry width="50" height="50" relative="1" as="geometry">
            <mxPoint x="500" y="300" as="sourcePoint" />
            <mxPoint x="556.6399999999996" y="245.6399999999997" as="targetPoint" />
          </mxGeometry>
        </mxCell>
        <mxCell id="wt0K1hmHgsjhLcT-p73o-34" value="&lt;h1&gt;Ju - MiJu&lt;/h1&gt;&lt;p&gt;La Junta estará formada por quien ostente la dirección del centro, que la presidirá, y por la persona que ocupe la secretaría del centro (miembros del equipo de gobierno), más un número determinado de miembros distribuidos según reglamento. (miembros junta)&lt;/p&gt;" style="text;html=1;strokeColor=none;fillColor=none;spacing=5;spacingTop=-20;whiteSpace=wrap;overflow=hidden;rounded=0;fontStyle=2" parent="1" vertex="1">
          <mxGeometry x="260.7300000000001" y="407.37999999999994" width="219.08" height="170" as="geometry" />
        </mxCell>
        <mxCell id="wt0K1hmHgsjhLcT-p73o-37" value="idCentro" style="text;html=1;strokeColor=none;fillColor=none;align=left;verticalAlign=middle;whiteSpace=wrap;rounded=0;fontSize=9;" parent="1" vertex="1">
          <mxGeometry x="522.5099999999999" y="278.44" width="75" height="12.5" as="geometry" />
        </mxCell>
        <mxCell id="wt0K1hmHgsjhLcT-p73o-38" value="" style="endArrow=none;html=1;rounded=0;fontSize=10;entryX=0.5;entryY=0;entryDx=0;entryDy=0;exitX=0.5;exitY=1;exitDx=0;exitDy=0;" parent="1" source="wt0K1hmHgsjhLcT-p73o-39" edge="1">
          <mxGeometry width="50" height="50" relative="1" as="geometry">
            <mxPoint x="553.01" y="206.5" as="sourcePoint" />
            <mxPoint x="513" y="307" as="targetPoint" />
          </mxGeometry>
        </mxCell>
        <mxCell id="wt0K1hmHgsjhLcT-p73o-39" value="" style="ellipse;whiteSpace=wrap;html=1;aspect=fixed;fillColor=#CCCCCC;strokeColor=#000000;fontColor=#000000;" parent="1" vertex="1">
          <mxGeometry x="507.5100000000002" y="277.75" width="11" height="11" as="geometry" />
        </mxCell>
        <mxCell id="wt0K1hmHgsjhLcT-p73o-63" value="idUsuario" style="text;html=1;strokeColor=none;fillColor=none;align=left;verticalAlign=middle;whiteSpace=wrap;rounded=0;fontSize=9;" parent="1" vertex="1">
          <mxGeometry x="420.93000000000006" y="611.56" width="65" height="12.5" as="geometry" />
        </mxCell>
        <mxCell id="wt0K1hmHgsjhLcT-p73o-64" value="" style="ellipse;whiteSpace=wrap;html=1;aspect=fixed;fillColor=#CCCCCC;strokeColor=#000000;fontColor=#000000;gradientColor=default;gradientDirection=west;" parent="1" vertex="1">
          <mxGeometry x="409" y="611.5600000000002" width="11" height="11" as="geometry" />
        </mxCell>
        <mxCell id="wt0K1hmHgsjhLcT-p73o-65" value="" style="ellipse;whiteSpace=wrap;html=1;aspect=fixed;fillColor=#CCCCCC;strokeColor=#000000;fontColor=#000000;gradientColor=default;gradientDirection=west;" parent="1" vertex="1">
          <mxGeometry x="419.99999999999994" y="626.6300000000001" width="12.05" height="12.05" as="geometry" />
        </mxCell>
        <mxCell id="wt0K1hmHgsjhLcT-p73o-66" value="idJunta" style="text;html=1;strokeColor=none;fillColor=none;align=left;verticalAlign=middle;whiteSpace=wrap;rounded=0;fontSize=9;" parent="1" vertex="1">
          <mxGeometry x="434.74999999999994" y="625.63" width="45.06" height="12.5" as="geometry" />
        </mxCell>
        <mxCell id="wt0K1hmHgsjhLcT-p73o-67" value="fechaInicio" style="text;html=1;strokeColor=none;fillColor=none;align=left;verticalAlign=middle;whiteSpace=wrap;rounded=0;fontSize=9;" parent="1" vertex="1">
          <mxGeometry x="449.6799999999999" y="640.12" width="75" height="12.5" as="geometry" />
        </mxCell>
        <mxCell id="wt0K1hmHgsjhLcT-p73o-68" value="" style="ellipse;whiteSpace=wrap;html=1;aspect=fixed;fillColor=#FFFFFF;strokeColor=#000000;fontColor=#000000;" parent="1" vertex="1">
          <mxGeometry x="434.68000000000023" y="639.4300000000001" width="11" height="11" as="geometry" />
        </mxCell>
        <mxCell id="wt0K1hmHgsjhLcT-p73o-69" value="fechaFin" style="text;html=1;strokeColor=none;fillColor=none;align=left;verticalAlign=middle;whiteSpace=wrap;rounded=0;fontSize=9;" parent="1" vertex="1">
          <mxGeometry x="463.99999999999994" y="656.3" width="75" height="12.5" as="geometry" />
        </mxCell>
        <mxCell id="wt0K1hmHgsjhLcT-p73o-70" value="" style="ellipse;whiteSpace=wrap;html=1;aspect=fixed;fillColor=#FFFFFF;strokeColor=#000000;fontColor=#000000;" parent="1" vertex="1">
          <mxGeometry x="449.6000000000003" y="656.3" width="11" height="11" as="geometry" />
        </mxCell>
        <mxCell id="wt0K1hmHgsjhLcT-p73o-73" value="" style="endArrow=none;html=1;rounded=0;fontSize=10;exitX=0.5;exitY=1;exitDx=0;exitDy=0;entryX=0.193;entryY=0.004;entryDx=0;entryDy=0;entryPerimeter=0;" parent="1" source="wt0K1hmHgsjhLcT-p73o-64" edge="1">
          <mxGeometry width="50" height="50" relative="1" as="geometry">
            <mxPoint x="410" y="615" as="sourcePoint" />
            <mxPoint x="414.6200000000001" y="704.22" as="targetPoint" />
          </mxGeometry>
        </mxCell>
        <mxCell id="wt0K1hmHgsjhLcT-p73o-74" value="" style="endArrow=none;html=1;rounded=0;fontSize=10;exitX=0.5;exitY=1;exitDx=0;exitDy=0;entryX=0.305;entryY=0.004;entryDx=0;entryDy=0;entryPerimeter=0;" parent="1" source="wt0K1hmHgsjhLcT-p73o-65" edge="1">
          <mxGeometry width="50" height="50" relative="1" as="geometry">
            <mxPoint x="420" y="625" as="sourcePoint" />
            <mxPoint x="425.81999999999994" y="704.22" as="targetPoint" />
          </mxGeometry>
        </mxCell>
        <mxCell id="wt0K1hmHgsjhLcT-p73o-75" value="" style="endArrow=none;html=1;rounded=0;fontSize=10;exitX=0.5;exitY=1;exitDx=0;exitDy=0;entryX=0.449;entryY=0.009;entryDx=0;entryDy=0;entryPerimeter=0;" parent="1" source="wt0K1hmHgsjhLcT-p73o-68" edge="1">
          <mxGeometry width="50" height="50" relative="1" as="geometry">
            <mxPoint x="436" y="649" as="sourcePoint" />
            <mxPoint x="440.2199999999998" y="704.52" as="targetPoint" />
          </mxGeometry>
        </mxCell>
        <mxCell id="wt0K1hmHgsjhLcT-p73o-76" value="" style="endArrow=none;html=1;rounded=0;fontSize=10;exitX=0.5;exitY=1;exitDx=0;exitDy=0;entryX=0.586;entryY=0.009;entryDx=0;entryDy=0;entryPerimeter=0;" parent="1" source="wt0K1hmHgsjhLcT-p73o-70" edge="1">
          <mxGeometry width="50" height="50" relative="1" as="geometry">
            <mxPoint x="450" y="660" as="sourcePoint" />
            <mxPoint x="453.91999999999985" y="704.52" as="targetPoint" />
          </mxGeometry>
        </mxCell>
        <mxCell id="wt0K1hmHgsjhLcT-p73o-77" value="&lt;h1&gt;Ct - MiEq&lt;/h1&gt;&lt;p&gt;El equipo de gobierno de un centro estará formado por diferentes miembros, entre ellos:&lt;/p&gt;- Director o Decano: no podrá haber más de un director de un centro entre las mismas fechas. (controlar en lógica de negocio)&lt;p&gt;- Un secretario: no podrá haber más de un secretario de un centro entre las mismas fechas. (controlar en lógica de negocio)&lt;/p&gt;&lt;p&gt;- Subdirectores o Vicedecanos&lt;/p&gt;&lt;p&gt;- Secretarios de dirección&lt;/p&gt;&lt;p&gt;En caso de cese de cualquier miembro, incluso el director, por los motivos especificados en el reglamento de la UCO, se mantendrá la junta.&lt;/p&gt;&lt;p&gt;&quot;Por cese del Decano; en este supuesto, seguirán siendo miembros de Junta de Facultad en funciones, hasta el nombramiento del nuevo Decano&quot;&lt;/p&gt;" style="text;html=1;strokeColor=none;fillColor=none;spacing=5;spacingTop=-20;whiteSpace=wrap;overflow=hidden;rounded=0;fontStyle=2" parent="1" vertex="1">
          <mxGeometry x="-376.11" y="709.12" width="506.25" height="314.51" as="geometry" />
        </mxCell>
        <mxCell id="wt0K1hmHgsjhLcT-p73o-83" style="edgeStyle=orthogonalEdgeStyle;rounded=0;orthogonalLoop=1;jettySize=auto;html=1;exitX=0.5;exitY=1;exitDx=0;exitDy=0;entryX=0.75;entryY=0;entryDx=0;entryDy=0;" parent="1" source="wt0K1hmHgsjhLcT-p73o-78" target="MmX11wm5HvuTR1FrTXqp-397" edge="1">
          <mxGeometry relative="1" as="geometry" />
        </mxCell>
        <mxCell id="wt0K1hmHgsjhLcT-p73o-109" style="edgeStyle=orthogonalEdgeStyle;rounded=0;orthogonalLoop=1;jettySize=auto;html=1;exitX=0.5;exitY=0;exitDx=0;exitDy=0;entryX=0.117;entryY=0.934;entryDx=0;entryDy=0;entryPerimeter=0;" parent="1" source="wt0K1hmHgsjhLcT-p73o-78" target="MmX11wm5HvuTR1FrTXqp-347" edge="1">
          <mxGeometry relative="1" as="geometry" />
        </mxCell>
        <mxCell id="wt0K1hmHgsjhLcT-p73o-78" value="&amp;nbsp; &amp;nbsp;Usu-&lt;br&gt;MiJu" style="shape=rhombus;perimeter=rhombusPerimeter;whiteSpace=wrap;html=1;align=center;fontStyle=1;fontSize=10;" parent="1" vertex="1">
          <mxGeometry x="386.06" y="862.24" width="60" height="60" as="geometry" />
        </mxCell>
        <mxCell id="wt0K1hmHgsjhLcT-p73o-79" value="1:N" style="text;html=1;strokeColor=none;fillColor=none;align=center;verticalAlign=middle;whiteSpace=wrap;rounded=0;fontSize=15;fontStyle=1;rotation=90;" parent="1" vertex="1">
          <mxGeometry x="449.17999999999984" y="881.49" width="22.43" height="20" as="geometry" />
        </mxCell>
        <mxCell id="wt0K1hmHgsjhLcT-p73o-80" value="E" style="text;html=1;strokeColor=none;fillColor=none;align=center;verticalAlign=middle;whiteSpace=wrap;rounded=0;fontSize=8;fontStyle=1" parent="1" vertex="1">
          <mxGeometry x="388.59999999999997" y="882.36" width="12.43" height="20" as="geometry" />
        </mxCell>
        <mxCell id="wt0K1hmHgsjhLcT-p73o-81" value="" style="endArrow=none;html=1;rounded=0;exitX=0;exitY=0;exitDx=0;exitDy=0;entryX=0;entryY=1;entryDx=0;entryDy=0;" parent="1" source="wt0K1hmHgsjhLcT-p73o-78" target="wt0K1hmHgsjhLcT-p73o-78" edge="1">
          <mxGeometry width="50" height="50" relative="1" as="geometry">
            <mxPoint x="296.06" y="882.61" as="sourcePoint" />
            <mxPoint x="346.06" y="832.61" as="targetPoint" />
          </mxGeometry>
        </mxCell>
        <mxCell id="wt0K1hmHgsjhLcT-p73o-84" value="idRepresentación" style="text;html=1;strokeColor=none;fillColor=none;align=left;verticalAlign=middle;whiteSpace=wrap;rounded=0;fontSize=9;" parent="1" vertex="1">
          <mxGeometry x="474.5899999999999" y="671.25" width="75" height="12.5" as="geometry" />
        </mxCell>
        <mxCell id="wt0K1hmHgsjhLcT-p73o-85" value="" style="ellipse;whiteSpace=wrap;html=1;aspect=fixed;fillColor=#CCCCCC;strokeColor=#000000;fontColor=#000000;" parent="1" vertex="1">
          <mxGeometry x="463.1900000000003" y="672.25" width="11" height="11" as="geometry" />
        </mxCell>
        <mxCell id="wt0K1hmHgsjhLcT-p73o-86" value="" style="endArrow=none;html=1;rounded=0;fontSize=10;exitX=0.5;exitY=1;exitDx=0;exitDy=0;entryX=0.73;entryY=0.009;entryDx=0;entryDy=0;entryPerimeter=0;" parent="1" source="wt0K1hmHgsjhLcT-p73o-85" edge="1">
          <mxGeometry width="50" height="50" relative="1" as="geometry">
            <mxPoint x="465" y="677" as="sourcePoint" />
            <mxPoint x="468.31999999999994" y="704.52" as="targetPoint" />
          </mxGeometry>
        </mxCell>
        <mxCell id="wt0K1hmHgsjhLcT-p73o-87" value="Representación Junta" style="whiteSpace=wrap;html=1;align=center;points=[[0,0,0,0,0],[0,0.25,0,0,0],[0,0.5,0,0,0],[0,0.75,0,0,0],[0,1,0,0,0],[0.12,0,0,0,0],[0.25,0,0,0,0],[0.25,1,0,0,0],[0.38,0,0,0,0],[0.5,0,0,0,0],[0.5,1,0,0,0],[0.63,0,0,0,0],[0.75,0,0,0,0],[0.75,1,0,0,0],[0.88,0,0,0,0],[1,0,0,0,0],[1,0.25,0,0,0],[1,0.5,0,0,0],[1,0.75,0,0,0],[1,1,0,0,0]];" parent="1" vertex="1">
          <mxGeometry x="658.48" y="860.88" width="100" height="60" as="geometry" />
        </mxCell>
        <mxCell id="wt0K1hmHgsjhLcT-p73o-89" value="nombre" style="text;html=1;strokeColor=none;fillColor=none;align=left;verticalAlign=middle;whiteSpace=wrap;rounded=0;fontSize=9;" parent="1" vertex="1">
          <mxGeometry x="683.3100000000001" y="822.61" width="37.5" height="12.5" as="geometry" />
        </mxCell>
        <mxCell id="wt0K1hmHgsjhLcT-p73o-92" value="" style="endArrow=none;html=1;rounded=0;fontSize=11;entryX=0.5;entryY=1;entryDx=0;entryDy=0;exitX=0;exitY=0;exitDx=0;exitDy=0;" parent="1" target="wt0K1hmHgsjhLcT-p73o-99" edge="1">
          <mxGeometry width="50" height="50" relative="1" as="geometry">
            <mxPoint x="664.3399999999999" y="860.88" as="sourcePoint" />
            <mxPoint x="756.48" y="748.82" as="targetPoint" />
          </mxGeometry>
        </mxCell>
        <mxCell id="wt0K1hmHgsjhLcT-p73o-96" value="id" style="text;html=1;strokeColor=none;fillColor=none;align=left;verticalAlign=middle;whiteSpace=wrap;rounded=0;fontSize=9;" parent="1" vertex="1">
          <mxGeometry x="671.15" y="807.32" width="70.5" height="12.5" as="geometry" />
        </mxCell>
        <mxCell id="wt0K1hmHgsjhLcT-p73o-97" value="" style="endArrow=none;html=1;rounded=0;fontSize=10;fontColor=#000000;strokeColor=#000000;exitX=0.12;exitY=0;exitDx=0;exitDy=0;entryX=0.5;entryY=1;entryDx=0;entryDy=0;exitPerimeter=0;" parent="1" target="wt0K1hmHgsjhLcT-p73o-98" edge="1">
          <mxGeometry width="50" height="50" relative="1" as="geometry">
            <mxPoint x="676.3399999999999" y="860.88" as="sourcePoint" />
            <mxPoint x="756.48" y="761.82" as="targetPoint" />
          </mxGeometry>
        </mxCell>
        <mxCell id="wt0K1hmHgsjhLcT-p73o-98" value="" style="ellipse;whiteSpace=wrap;html=1;aspect=fixed;fillColor=#FFFFFF;strokeColor=#000000;fontColor=#000000;" parent="1" vertex="1">
          <mxGeometry x="671.15" y="824.11" width="11" height="11" as="geometry" />
        </mxCell>
        <mxCell id="wt0K1hmHgsjhLcT-p73o-99" value="" style="ellipse;whiteSpace=wrap;html=1;aspect=fixed;fillColor=#000000;strokeColor=#000000;fontColor=#000000;" parent="1" vertex="1">
          <mxGeometry x="658.48" y="809" width="11" height="11" as="geometry" />
        </mxCell>
        <mxCell id="wt0K1hmHgsjhLcT-p73o-115" style="edgeStyle=orthogonalEdgeStyle;rounded=0;orthogonalLoop=1;jettySize=auto;html=1;exitX=0;exitY=0.5;exitDx=0;exitDy=0;entryX=0.857;entryY=0.934;entryDx=0;entryDy=0;entryPerimeter=0;" parent="1" source="wt0K1hmHgsjhLcT-p73o-103" target="MmX11wm5HvuTR1FrTXqp-347" edge="1">
          <mxGeometry relative="1" as="geometry" />
        </mxCell>
        <mxCell id="wt0K1hmHgsjhLcT-p73o-103" value="&lt;font style=&quot;font-size: 8px;&quot;&gt;&amp;nbsp; Rep-MiJu&lt;/font&gt;" style="shape=rhombus;perimeter=rhombusPerimeter;whiteSpace=wrap;html=1;align=left;fontStyle=1;fontSize=10;" parent="1" vertex="1">
          <mxGeometry x="534.01" y="860.88" width="60" height="60" as="geometry" />
        </mxCell>
        <mxCell id="wt0K1hmHgsjhLcT-p73o-104" value="1:N" style="text;html=1;strokeColor=none;fillColor=none;align=center;verticalAlign=middle;whiteSpace=wrap;rounded=0;fontSize=15;fontStyle=1" parent="1" vertex="1">
          <mxGeometry x="552.8" y="839" width="22.43" height="20" as="geometry" />
        </mxCell>
        <mxCell id="wt0K1hmHgsjhLcT-p73o-116" style="edgeStyle=orthogonalEdgeStyle;rounded=0;orthogonalLoop=1;jettySize=auto;html=1;exitX=1;exitY=0.5;exitDx=0;exitDy=0;entryX=0;entryY=0.5;entryDx=0;entryDy=0;entryPerimeter=0;" parent="1" source="wt0K1hmHgsjhLcT-p73o-105" target="wt0K1hmHgsjhLcT-p73o-87" edge="1">
          <mxGeometry relative="1" as="geometry" />
        </mxCell>
        <mxCell id="wt0K1hmHgsjhLcT-p73o-105" value="EX" style="text;html=1;strokeColor=none;fillColor=none;align=center;verticalAlign=middle;whiteSpace=wrap;rounded=0;fontSize=8;fontStyle=1" parent="1" vertex="1">
          <mxGeometry x="578.55" y="881" width="12.43" height="20" as="geometry" />
        </mxCell>
        <mxCell id="wt0K1hmHgsjhLcT-p73o-106" value="" style="endArrow=none;html=1;rounded=0;exitX=0;exitY=0;exitDx=0;exitDy=0;entryX=0;entryY=1;entryDx=0;entryDy=0;" parent="1" edge="1">
          <mxGeometry width="50" height="50" relative="1" as="geometry">
            <mxPoint x="579.01" y="875.8799999999999" as="sourcePoint" />
            <mxPoint x="579.01" y="905.8799999999999" as="targetPoint" />
          </mxGeometry>
        </mxCell>
        <mxCell id="wt0K1hmHgsjhLcT-p73o-117" value="Profesorado vinculación permanente, otro personal docente e investigador y&amp;nbsp; PAS, alumnado, personal libre designación" style="text;html=1;strokeColor=none;fillColor=none;align=center;verticalAlign=middle;whiteSpace=wrap;rounded=0;fontStyle=2" parent="1" vertex="1">
          <mxGeometry x="590.9799999999999" y="923.25" width="258.95" height="58.38" as="geometry" />
        </mxCell>
        <mxCell id="wt0K1hmHgsjhLcT-p73o-118" value="(1,N)" style="text;html=1;strokeColor=none;fillColor=none;align=left;verticalAlign=middle;whiteSpace=wrap;rounded=0;fontSize=9;" parent="1" vertex="1">
          <mxGeometry x="517.36" y="717.35" width="25.5" height="12.5" as="geometry" />
        </mxCell>
        <mxCell id="wt0K1hmHgsjhLcT-p73o-119" value="(1,1)" style="text;html=1;strokeColor=none;fillColor=none;align=left;verticalAlign=middle;whiteSpace=wrap;rounded=0;fontSize=9;" parent="1" vertex="1">
          <mxGeometry x="513.51" y="372.44" width="25.5" height="12.5" as="geometry" />
        </mxCell>
        <mxCell id="wt0K1hmHgsjhLcT-p73o-120" value="(1,1)" style="text;html=1;strokeColor=none;fillColor=none;align=left;verticalAlign=middle;whiteSpace=wrap;rounded=0;fontSize=9;" parent="1" vertex="1">
          <mxGeometry x="350.47" y="991.0100000000001" width="25.5" height="12.5" as="geometry" />
        </mxCell>
        <mxCell id="wt0K1hmHgsjhLcT-p73o-121" value="(0,N)" style="text;html=1;strokeColor=none;fillColor=none;align=left;verticalAlign=middle;whiteSpace=wrap;rounded=0;fontSize=9;" parent="1" vertex="1">
          <mxGeometry x="420.18" y="769.23" width="25.5" height="12.5" as="geometry" />
        </mxCell>
        <mxCell id="wt0K1hmHgsjhLcT-p73o-145" value="Miembro&lt;br&gt;Equipo&lt;br&gt;Gobierno" style="shape=ext;margin=3;double=1;whiteSpace=wrap;html=1;align=center;" parent="1" vertex="1">
          <mxGeometry x="123.92999999999995" y="602.2499999999999" width="100" height="60" as="geometry" />
        </mxCell>
        <mxCell id="wt0K1hmHgsjhLcT-p73o-212" style="edgeStyle=orthogonalEdgeStyle;rounded=0;orthogonalLoop=1;jettySize=auto;html=1;exitX=0.5;exitY=1;exitDx=0;exitDy=0;entryX=0.5;entryY=0;entryDx=0;entryDy=0;" parent="1" source="wt0K1hmHgsjhLcT-p73o-147" target="wt0K1hmHgsjhLcT-p73o-145" edge="1">
          <mxGeometry relative="1" as="geometry" />
        </mxCell>
        <mxCell id="wt0K1hmHgsjhLcT-p73o-147" value="Ct-MiEq" style="shape=rhombus;perimeter=rhombusPerimeter;whiteSpace=wrap;html=1;align=center;fontStyle=1;fontSize=10;" parent="1" vertex="1">
          <mxGeometry x="143.93999999999994" y="468.52" width="60" height="60" as="geometry" />
        </mxCell>
        <mxCell id="wt0K1hmHgsjhLcT-p73o-209" style="edgeStyle=orthogonalEdgeStyle;rounded=0;orthogonalLoop=1;jettySize=auto;html=1;exitX=0.5;exitY=0;exitDx=0;exitDy=0;entryX=0.5;entryY=1;entryDx=0;entryDy=0;entryPerimeter=0;" parent="1" source="wt0K1hmHgsjhLcT-p73o-148" target="_VbOPjBLyvqnEfAaVFIH-1" edge="1">
          <mxGeometry relative="1" as="geometry" />
        </mxCell>
        <mxCell id="wt0K1hmHgsjhLcT-p73o-148" value="EX" style="text;html=1;strokeColor=none;fillColor=none;align=center;verticalAlign=middle;whiteSpace=wrap;rounded=0;fontSize=8;fontStyle=1" parent="1" vertex="1">
          <mxGeometry x="167.7199999999999" y="467.52" width="12.43" height="20" as="geometry" />
        </mxCell>
        <mxCell id="wt0K1hmHgsjhLcT-p73o-149" value="" style="endArrow=none;html=1;rounded=0;exitX=1;exitY=0;exitDx=0;exitDy=0;entryX=0;entryY=0;entryDx=0;entryDy=0;" parent="1" source="wt0K1hmHgsjhLcT-p73o-147" target="wt0K1hmHgsjhLcT-p73o-147" edge="1">
          <mxGeometry width="50" height="50" relative="1" as="geometry">
            <mxPoint x="53.94000000000001" y="488.89" as="sourcePoint" />
            <mxPoint x="103.93999999999998" y="438.89" as="targetPoint" />
          </mxGeometry>
        </mxCell>
        <mxCell id="wt0K1hmHgsjhLcT-p73o-150" value="1:N" style="text;html=1;strokeColor=none;fillColor=none;align=center;verticalAlign=middle;whiteSpace=wrap;rounded=0;fontSize=15;fontStyle=1;rotation=90;" parent="1" vertex="1">
          <mxGeometry x="205.53999999999985" y="487.52" width="22.43" height="20" as="geometry" />
        </mxCell>
        <mxCell id="wt0K1hmHgsjhLcT-p73o-151" value="idCentro" style="text;html=1;strokeColor=none;fillColor=none;align=left;verticalAlign=middle;whiteSpace=wrap;rounded=0;fontSize=9;" parent="1" vertex="1">
          <mxGeometry x="247.31000000000003" y="599.8899999999999" width="65" height="12.5" as="geometry" />
        </mxCell>
        <mxCell id="wt0K1hmHgsjhLcT-p73o-152" value="" style="ellipse;whiteSpace=wrap;html=1;aspect=fixed;fillColor=#CCCCCC;strokeColor=#000000;fontColor=#000000;gradientColor=default;gradientDirection=west;" parent="1" vertex="1">
          <mxGeometry x="235.37999999999997" y="599.8900000000001" width="11" height="11" as="geometry" />
        </mxCell>
        <mxCell id="wt0K1hmHgsjhLcT-p73o-153" value="" style="ellipse;whiteSpace=wrap;html=1;aspect=fixed;fillColor=#CCCCCC;strokeColor=#000000;fontColor=#000000;gradientColor=default;gradientDirection=west;" parent="1" vertex="1">
          <mxGeometry x="246.3799999999999" y="614.96" width="12.05" height="12.05" as="geometry" />
        </mxCell>
        <mxCell id="wt0K1hmHgsjhLcT-p73o-154" value="idUsuario" style="text;html=1;strokeColor=none;fillColor=none;align=left;verticalAlign=middle;whiteSpace=wrap;rounded=0;fontSize=9;" parent="1" vertex="1">
          <mxGeometry x="261.1299999999999" y="613.96" width="45.06" height="12.5" as="geometry" />
        </mxCell>
        <mxCell id="wt0K1hmHgsjhLcT-p73o-155" value="fechaInicio" style="text;html=1;strokeColor=none;fillColor=none;align=left;verticalAlign=middle;whiteSpace=wrap;rounded=0;fontSize=9;" parent="1" vertex="1">
          <mxGeometry x="276.05999999999983" y="628.45" width="75" height="12.5" as="geometry" />
        </mxCell>
        <mxCell id="wt0K1hmHgsjhLcT-p73o-156" value="" style="ellipse;whiteSpace=wrap;html=1;aspect=fixed;fillColor=#FFFFFF;strokeColor=#000000;fontColor=#000000;" parent="1" vertex="1">
          <mxGeometry x="261.13000000000017" y="629.2" width="11" height="11" as="geometry" />
        </mxCell>
        <mxCell id="wt0K1hmHgsjhLcT-p73o-157" value="fechaFin" style="text;html=1;strokeColor=none;fillColor=none;align=left;verticalAlign=middle;whiteSpace=wrap;rounded=0;fontSize=9;" parent="1" vertex="1">
          <mxGeometry x="280.08999999999986" y="641.6199999999999" width="75" height="12.5" as="geometry" />
        </mxCell>
        <mxCell id="wt0K1hmHgsjhLcT-p73o-158" value="" style="ellipse;whiteSpace=wrap;html=1;aspect=fixed;fillColor=#FFFFFF;strokeColor=#000000;fontColor=#000000;" parent="1" vertex="1">
          <mxGeometry x="269.09000000000026" y="641.6199999999999" width="11" height="11" as="geometry" />
        </mxCell>
        <mxCell id="wt0K1hmHgsjhLcT-p73o-159" value="" style="endArrow=none;html=1;rounded=0;fontSize=10;exitX=0;exitY=0.5;exitDx=0;exitDy=0;entryX=0.994;entryY=0.046;entryDx=0;entryDy=0;entryPerimeter=0;" parent="1" source="wt0K1hmHgsjhLcT-p73o-152" target="wt0K1hmHgsjhLcT-p73o-145" edge="1">
          <mxGeometry width="50" height="50" relative="1" as="geometry">
            <mxPoint x="236.37999999999997" y="603.3299999999999" as="sourcePoint" />
            <mxPoint x="241.00000000000009" y="692.5500000000001" as="targetPoint" />
          </mxGeometry>
        </mxCell>
        <mxCell id="wt0K1hmHgsjhLcT-p73o-160" value="" style="endArrow=none;html=1;rounded=0;fontSize=10;exitX=0;exitY=0.5;exitDx=0;exitDy=0;entryX=1.001;entryY=0.318;entryDx=0;entryDy=0;entryPerimeter=0;" parent="1" source="wt0K1hmHgsjhLcT-p73o-153" target="wt0K1hmHgsjhLcT-p73o-145" edge="1">
          <mxGeometry width="50" height="50" relative="1" as="geometry">
            <mxPoint x="246.37999999999997" y="613.3299999999999" as="sourcePoint" />
            <mxPoint x="252.1999999999999" y="692.5500000000001" as="targetPoint" />
          </mxGeometry>
        </mxCell>
        <mxCell id="wt0K1hmHgsjhLcT-p73o-161" value="" style="endArrow=none;html=1;rounded=0;fontSize=10;exitX=0;exitY=0.5;exitDx=0;exitDy=0;entryX=0.987;entryY=0.546;entryDx=0;entryDy=0;entryPerimeter=0;" parent="1" source="wt0K1hmHgsjhLcT-p73o-156" target="wt0K1hmHgsjhLcT-p73o-145" edge="1">
          <mxGeometry width="50" height="50" relative="1" as="geometry">
            <mxPoint x="262.38" y="637.3299999999999" as="sourcePoint" />
            <mxPoint x="266.5999999999998" y="692.85" as="targetPoint" />
          </mxGeometry>
        </mxCell>
        <mxCell id="wt0K1hmHgsjhLcT-p73o-162" value="" style="endArrow=none;html=1;rounded=0;fontSize=10;exitX=0;exitY=0.5;exitDx=0;exitDy=0;entryX=1;entryY=0.75;entryDx=0;entryDy=0;" parent="1" source="wt0K1hmHgsjhLcT-p73o-158" target="wt0K1hmHgsjhLcT-p73o-145" edge="1">
          <mxGeometry width="50" height="50" relative="1" as="geometry">
            <mxPoint x="276.38" y="648.3299999999999" as="sourcePoint" />
            <mxPoint x="280.29999999999984" y="692.85" as="targetPoint" />
          </mxGeometry>
        </mxCell>
        <mxCell id="wt0K1hmHgsjhLcT-p73o-163" value="idRepresentación" style="text;html=1;strokeColor=none;fillColor=none;align=left;verticalAlign=middle;whiteSpace=wrap;rounded=0;fontSize=9;" parent="1" vertex="1">
          <mxGeometry x="291.08999999999986" y="653.42" width="75" height="12.5" as="geometry" />
        </mxCell>
        <mxCell id="wt0K1hmHgsjhLcT-p73o-164" value="" style="ellipse;whiteSpace=wrap;html=1;aspect=fixed;fillColor=#CCCCCC;strokeColor=#000000;fontColor=#000000;" parent="1" vertex="1">
          <mxGeometry x="280.0900000000002" y="654.1199999999999" width="11" height="11" as="geometry" />
        </mxCell>
        <mxCell id="wt0K1hmHgsjhLcT-p73o-165" value="" style="endArrow=none;html=1;rounded=0;fontSize=10;exitX=0;exitY=0.5;exitDx=0;exitDy=0;entryX=1.001;entryY=0.94;entryDx=0;entryDy=0;entryPerimeter=0;" parent="1" source="wt0K1hmHgsjhLcT-p73o-164" target="wt0K1hmHgsjhLcT-p73o-145" edge="1">
          <mxGeometry width="50" height="50" relative="1" as="geometry">
            <mxPoint x="291.37999999999994" y="665.3299999999999" as="sourcePoint" />
            <mxPoint x="294.6999999999999" y="692.85" as="targetPoint" />
          </mxGeometry>
        </mxCell>
        <mxCell id="wt0K1hmHgsjhLcT-p73o-169" value="Representación Equipo Gobierno" style="whiteSpace=wrap;html=1;align=center;points=[[0,0,0,0,0],[0,0.25,0,0,0],[0,0.5,0,0,0],[0,0.75,0,0,0],[0,1,0,0,0],[0.12,0,0,0,0],[0.25,0,0,0,0],[0.25,1,0,0,0],[0.38,0,0,0,0],[0.5,0,0,0,0],[0.5,1,0,0,0],[0.63,0,0,0,0],[0.75,0,0,0,0],[0.75,1,0,0,0],[0.88,0,0,0,0],[1,0,0,0,0],[1,0.25,0,0,0],[1,0.5,0,0,0],[1,0.75,0,0,0],[1,1,0,0,0]];" parent="1" vertex="1">
          <mxGeometry x="-166.49999999999994" y="613.75" width="100" height="60" as="geometry" />
        </mxCell>
        <mxCell id="wt0K1hmHgsjhLcT-p73o-170" value="nombre" style="text;html=1;strokeColor=none;fillColor=none;align=left;verticalAlign=middle;whiteSpace=wrap;rounded=0;fontSize=9;" parent="1" vertex="1">
          <mxGeometry x="-141.6699999999999" y="575.48" width="37.5" height="12.5" as="geometry" />
        </mxCell>
        <mxCell id="wt0K1hmHgsjhLcT-p73o-171" value="" style="endArrow=none;html=1;rounded=0;fontSize=11;entryX=0.5;entryY=1;entryDx=0;entryDy=0;exitX=0;exitY=0;exitDx=0;exitDy=0;" parent="1" target="wt0K1hmHgsjhLcT-p73o-175" edge="1">
          <mxGeometry width="50" height="50" relative="1" as="geometry">
            <mxPoint x="-160.64000000000004" y="613.75" as="sourcePoint" />
            <mxPoint x="-68.49999999999994" y="501.69000000000005" as="targetPoint" />
          </mxGeometry>
        </mxCell>
        <mxCell id="wt0K1hmHgsjhLcT-p73o-172" value="id" style="text;html=1;strokeColor=none;fillColor=none;align=left;verticalAlign=middle;whiteSpace=wrap;rounded=0;fontSize=9;" parent="1" vertex="1">
          <mxGeometry x="-150.76" y="561.6300000000001" width="70.5" height="12.5" as="geometry" />
        </mxCell>
        <mxCell id="wt0K1hmHgsjhLcT-p73o-173" value="" style="endArrow=none;html=1;rounded=0;fontSize=10;fontColor=#000000;strokeColor=#000000;exitX=0.12;exitY=0;exitDx=0;exitDy=0;entryX=0.5;entryY=1;entryDx=0;entryDy=0;exitPerimeter=0;" parent="1" target="wt0K1hmHgsjhLcT-p73o-174" edge="1">
          <mxGeometry width="50" height="50" relative="1" as="geometry">
            <mxPoint x="-148.64000000000004" y="613.75" as="sourcePoint" />
            <mxPoint x="-68.49999999999994" y="514.69" as="targetPoint" />
          </mxGeometry>
        </mxCell>
        <mxCell id="wt0K1hmHgsjhLcT-p73o-174" value="" style="ellipse;whiteSpace=wrap;html=1;aspect=fixed;fillColor=#FFFFFF;strokeColor=#000000;fontColor=#000000;" parent="1" vertex="1">
          <mxGeometry x="-153.82999999999998" y="576.98" width="11" height="11" as="geometry" />
        </mxCell>
        <mxCell id="wt0K1hmHgsjhLcT-p73o-175" value="" style="ellipse;whiteSpace=wrap;html=1;aspect=fixed;fillColor=#000000;strokeColor=#000000;fontColor=#000000;" parent="1" vertex="1">
          <mxGeometry x="-166.49999999999994" y="561.87" width="11" height="11" as="geometry" />
        </mxCell>
        <mxCell id="wt0K1hmHgsjhLcT-p73o-222" style="edgeStyle=orthogonalEdgeStyle;rounded=0;orthogonalLoop=1;jettySize=auto;html=1;exitX=0;exitY=0.5;exitDx=0;exitDy=0;entryX=1;entryY=0.5;entryDx=0;entryDy=0;entryPerimeter=0;" parent="1" source="wt0K1hmHgsjhLcT-p73o-176" target="wt0K1hmHgsjhLcT-p73o-169" edge="1">
          <mxGeometry relative="1" as="geometry" />
        </mxCell>
        <mxCell id="wt0K1hmHgsjhLcT-p73o-176" value="&lt;font style=&quot;font-size: 8px;&quot;&gt;&amp;nbsp; Rep-MiEq&lt;/font&gt;" style="shape=rhombus;perimeter=rhombusPerimeter;whiteSpace=wrap;html=1;align=left;fontStyle=1;fontSize=10;" parent="1" vertex="1">
          <mxGeometry x="-4.159999999999968" y="613.3" width="60" height="60" as="geometry" />
        </mxCell>
        <mxCell id="wt0K1hmHgsjhLcT-p73o-177" value="1:N" style="text;html=1;strokeColor=none;fillColor=none;align=center;verticalAlign=middle;whiteSpace=wrap;rounded=0;fontSize=15;fontStyle=1" parent="1" vertex="1">
          <mxGeometry x="14.629999999999995" y="591.42" width="22.43" height="20" as="geometry" />
        </mxCell>
        <mxCell id="wt0K1hmHgsjhLcT-p73o-223" style="edgeStyle=orthogonalEdgeStyle;rounded=0;orthogonalLoop=1;jettySize=auto;html=1;exitX=1;exitY=0.5;exitDx=0;exitDy=0;" parent="1" source="wt0K1hmHgsjhLcT-p73o-179" edge="1">
          <mxGeometry relative="1" as="geometry">
            <mxPoint x="120" y="643" as="targetPoint" />
          </mxGeometry>
        </mxCell>
        <mxCell id="wt0K1hmHgsjhLcT-p73o-179" value="EX" style="text;html=1;strokeColor=none;fillColor=none;align=center;verticalAlign=middle;whiteSpace=wrap;rounded=0;fontSize=8;fontStyle=1" parent="1" vertex="1">
          <mxGeometry x="40.379999999999995" y="633.42" width="12.43" height="20" as="geometry" />
        </mxCell>
        <mxCell id="wt0K1hmHgsjhLcT-p73o-180" value="" style="endArrow=none;html=1;rounded=0;exitX=0;exitY=0;exitDx=0;exitDy=0;entryX=0;entryY=1;entryDx=0;entryDy=0;" parent="1" edge="1">
          <mxGeometry width="50" height="50" relative="1" as="geometry">
            <mxPoint x="40.84000000000003" y="628.2999999999998" as="sourcePoint" />
            <mxPoint x="40.84000000000003" y="658.2999999999998" as="targetPoint" />
          </mxGeometry>
        </mxCell>
        <mxCell id="wt0K1hmHgsjhLcT-p73o-193" value="Director o Decano, Secretario, ViceDirectores o Vicedecanos, secretarios dirección..." style="text;html=1;strokeColor=none;fillColor=none;align=center;verticalAlign=middle;whiteSpace=wrap;rounded=0;fontStyle=2" parent="1" vertex="1">
          <mxGeometry x="-245.97000000000006" y="668.8000000000001" width="258.95" height="58.38" as="geometry" />
        </mxCell>
        <mxCell id="wt0K1hmHgsjhLcT-p73o-194" value="&lt;h1&gt;Ct - Ju&lt;/h1&gt;Un centro podrá ser coordinado por varias Juntas a lo largo del tiempo.&lt;br&gt;&lt;br&gt;Una Junta será creada normalmente cada 4 años, correspondiente al acta de constitución de la Junta realizada por el equipo de gobierno. No podrá haber más de una junta coordinando a un centro entre las mismas fechas (controlar en lógica negocio)&lt;br&gt;&lt;p&gt;Una Junta no podrá ser creada si no existe&amp;nbsp; un miembro del equipo de gobierno en el centro de la Junta con representación de director y otro de secretario, ya que son los miembros natos de la Junta. (controlar en lógica de negocio)&lt;/p&gt;" style="text;html=1;strokeColor=none;fillColor=none;spacing=5;spacingTop=-20;whiteSpace=wrap;overflow=hidden;rounded=0;fontStyle=2" parent="1" vertex="1">
          <mxGeometry x="-157.94" y="245.94" width="244.94" height="290" as="geometry" />
        </mxCell>
        <mxCell id="wt0K1hmHgsjhLcT-p73o-204" value="(1,1)" style="text;html=1;strokeColor=none;fillColor=none;align=left;verticalAlign=middle;whiteSpace=wrap;rounded=0;fontSize=9;" parent="1" vertex="1">
          <mxGeometry x="389.51" y="989.6300000000001" width="25.5" height="12.5" as="geometry" />
        </mxCell>
        <mxCell id="wt0K1hmHgsjhLcT-p73o-217" style="edgeStyle=orthogonalEdgeStyle;rounded=0;orthogonalLoop=1;jettySize=auto;html=1;exitX=0.5;exitY=1;exitDx=0;exitDy=0;entryX=0.362;entryY=0.026;entryDx=0;entryDy=0;entryPerimeter=0;" parent="1" source="wt0K1hmHgsjhLcT-p73o-213" target="MmX11wm5HvuTR1FrTXqp-397" edge="1">
          <mxGeometry relative="1" as="geometry">
            <Array as="points">
              <mxPoint x="174" y="930" />
              <mxPoint x="377" y="930" />
            </Array>
          </mxGeometry>
        </mxCell>
        <mxCell id="wt0K1hmHgsjhLcT-p73o-213" value="Usu-MiEq" style="shape=rhombus;perimeter=rhombusPerimeter;whiteSpace=wrap;html=1;align=center;fontStyle=1;fontSize=10;" parent="1" vertex="1">
          <mxGeometry x="144.13999999999993" y="752" width="60" height="60" as="geometry" />
        </mxCell>
        <mxCell id="wt0K1hmHgsjhLcT-p73o-220" style="edgeStyle=orthogonalEdgeStyle;rounded=0;orthogonalLoop=1;jettySize=auto;html=1;exitX=0.5;exitY=0;exitDx=0;exitDy=0;entryX=0.5;entryY=1;entryDx=0;entryDy=0;" parent="1" source="wt0K1hmHgsjhLcT-p73o-214" target="wt0K1hmHgsjhLcT-p73o-145" edge="1">
          <mxGeometry relative="1" as="geometry" />
        </mxCell>
        <mxCell id="wt0K1hmHgsjhLcT-p73o-214" value="EX" style="text;html=1;strokeColor=none;fillColor=none;align=center;verticalAlign=middle;whiteSpace=wrap;rounded=0;fontSize=8;fontStyle=1" parent="1" vertex="1">
          <mxGeometry x="167.9199999999999" y="751" width="12.43" height="20" as="geometry" />
        </mxCell>
        <mxCell id="wt0K1hmHgsjhLcT-p73o-215" value="" style="endArrow=none;html=1;rounded=0;exitX=1;exitY=0;exitDx=0;exitDy=0;entryX=0;entryY=0;entryDx=0;entryDy=0;" parent="1" source="wt0K1hmHgsjhLcT-p73o-213" target="wt0K1hmHgsjhLcT-p73o-213" edge="1">
          <mxGeometry width="50" height="50" relative="1" as="geometry">
            <mxPoint x="54.14000000000003" y="772.37" as="sourcePoint" />
            <mxPoint x="104.13999999999997" y="722.37" as="targetPoint" />
          </mxGeometry>
        </mxCell>
        <mxCell id="wt0K1hmHgsjhLcT-p73o-216" value="1:N" style="text;html=1;strokeColor=none;fillColor=none;align=center;verticalAlign=middle;whiteSpace=wrap;rounded=0;fontSize=15;fontStyle=1;rotation=90;" parent="1" vertex="1">
          <mxGeometry x="205.73999999999984" y="771" width="22.43" height="20" as="geometry" />
        </mxCell>
        <mxCell id="wt0K1hmHgsjhLcT-p73o-224" value="(0,N)" style="text;html=1;strokeColor=none;fillColor=none;align=left;verticalAlign=middle;whiteSpace=wrap;rounded=0;fontSize=9;" parent="1" vertex="1">
          <mxGeometry x="142.50000000000006" y="586" width="22.5" height="12.5" as="geometry" />
        </mxCell>
        <mxCell id="wt0K1hmHgsjhLcT-p73o-225" value="(1,1)" style="text;html=1;strokeColor=none;fillColor=none;align=left;verticalAlign=middle;whiteSpace=wrap;rounded=0;fontSize=9;" parent="1" vertex="1">
          <mxGeometry x="144.14000000000004" y="376.94" width="22.5" height="12.5" as="geometry" />
        </mxCell>
        <mxCell id="wt0K1hmHgsjhLcT-p73o-226" value="(0,N)" style="text;html=1;strokeColor=none;fillColor=none;align=left;verticalAlign=middle;whiteSpace=wrap;rounded=0;fontSize=9;" parent="1" vertex="1">
          <mxGeometry x="143.75000000000006" y="667.3" width="22.5" height="12.5" as="geometry" />
        </mxCell>
        <mxCell id="wt0K1hmHgsjhLcT-p73o-229" value="Ordinaria, extraordinaria, urgente" style="text;html=1;strokeColor=none;fillColor=none;align=center;verticalAlign=middle;whiteSpace=wrap;rounded=0;fontSize=7;" parent="1" vertex="1">
          <mxGeometry x="1291.57" y="1104.07" width="140" height="30" as="geometry" />
        </mxCell>
        <mxCell id="wt0K1hmHgsjhLcT-p73o-230" value="" style="ellipse;whiteSpace=wrap;html=1;aspect=fixed;fillColor=#FFFFFF;strokeColor=#000000;fontColor=#000000;" parent="1" vertex="1">
          <mxGeometry x="1319.94" y="1090.1299999999999" width="11" height="11" as="geometry" />
        </mxCell>
        <mxCell id="wt0K1hmHgsjhLcT-p73o-231" value="actaPDF" style="text;html=1;strokeColor=none;fillColor=none;align=left;verticalAlign=middle;whiteSpace=wrap;rounded=0;fontSize=9;" parent="1" vertex="1">
          <mxGeometry x="1300.6999999999998" y="1102.0699999999997" width="65" height="12.5" as="geometry" />
        </mxCell>
        <mxCell id="wt0K1hmHgsjhLcT-p73o-232" style="edgeStyle=none;rounded=0;orthogonalLoop=1;jettySize=auto;html=1;exitX=0.5;exitY=0;exitDx=0;exitDy=0;endArrow=none;endFill=0;entryX=0.126;entryY=1.005;entryDx=0;entryDy=0;entryPerimeter=0;" parent="1" source="wt0K1hmHgsjhLcT-p73o-230" target="MmX11wm5HvuTR1FrTXqp-278" edge="1">
          <mxGeometry relative="1" as="geometry">
            <mxPoint x="1363.95" y="1090.4499999999998" as="targetPoint" />
            <mxPoint x="1364" y="1101" as="sourcePoint" />
          </mxGeometry>
        </mxCell>
        <mxCell id="wt0K1hmHgsjhLcT-p73o-238" style="edgeStyle=orthogonalEdgeStyle;rounded=0;orthogonalLoop=1;jettySize=auto;html=1;exitX=0;exitY=0.5;exitDx=0;exitDy=0;" parent="1" source="wt0K1hmHgsjhLcT-p73o-233" edge="1">
          <mxGeometry relative="1" as="geometry">
            <mxPoint x="740" y="860" as="targetPoint" />
          </mxGeometry>
        </mxCell>
        <mxCell id="wt0K1hmHgsjhLcT-p73o-233" value="&lt;font style=&quot;font-size: 8px;&quot;&gt;Rep-MiCom&lt;/font&gt;" style="shape=rhombus;perimeter=rhombusPerimeter;whiteSpace=wrap;html=1;align=left;fontStyle=1;fontSize=10;" parent="1" vertex="1">
          <mxGeometry x="768.26" y="785.86" width="60" height="60" as="geometry" />
        </mxCell>
        <mxCell id="wt0K1hmHgsjhLcT-p73o-234" value="1:N" style="text;html=1;strokeColor=none;fillColor=none;align=center;verticalAlign=middle;whiteSpace=wrap;rounded=0;fontSize=15;fontStyle=1" parent="1" vertex="1">
          <mxGeometry x="787.05" y="763.98" width="22.43" height="20" as="geometry" />
        </mxCell>
        <mxCell id="wt0K1hmHgsjhLcT-p73o-237" style="edgeStyle=orthogonalEdgeStyle;rounded=0;orthogonalLoop=1;jettySize=auto;html=1;exitX=1;exitY=0.5;exitDx=0;exitDy=0;entryX=0;entryY=1;entryDx=0;entryDy=0;" parent="1" source="wt0K1hmHgsjhLcT-p73o-235" target="yooLV80YAIJDi9W8emZc-2" edge="1">
          <mxGeometry relative="1" as="geometry" />
        </mxCell>
        <mxCell id="wt0K1hmHgsjhLcT-p73o-235" value="EX" style="text;html=1;strokeColor=none;fillColor=none;align=center;verticalAlign=middle;whiteSpace=wrap;rounded=0;fontSize=8;fontStyle=1" parent="1" vertex="1">
          <mxGeometry x="812.8" y="805.98" width="12.43" height="20" as="geometry" />
        </mxCell>
        <mxCell id="wt0K1hmHgsjhLcT-p73o-236" value="" style="endArrow=none;html=1;rounded=0;exitX=0;exitY=0;exitDx=0;exitDy=0;entryX=0;entryY=1;entryDx=0;entryDy=0;" parent="1" edge="1">
          <mxGeometry width="50" height="50" relative="1" as="geometry">
            <mxPoint x="813.26" y="800.8599999999999" as="sourcePoint" />
            <mxPoint x="813.26" y="830.8599999999999" as="targetPoint" />
          </mxGeometry>
        </mxCell>
      </root>
    </mxGraphModel>
  </diagram>
</mxfile>
